<svg xmlns="http://www.w3.org/2000/svg" viewBox="0 0 4159.32 1896.56"><defs><style>.cls-1{fill:#fff;}</style></defs><title>Barcelona-Catalunya - White_1</title><g id="Layer_2" data-name="Layer 2"><g id="Layer_1-2" data-name="Layer 1"><path class="cls-1" d="M0,1622.78H97.89q40.17,0,60.26,16.57t20.08,52.07q0,25.35-8.77,39.58t-25.94,22.43q42.9,14.82,42.9,63.57,0,40.56-21.45,58.11t-62,17.55H0Zm96.72,26.52H30v93.21H99.45q25,0,36.47-11.9t11.5-35.88q0-24-12.28-34.71T96.72,1649.3Zm3.12,119.34H30v97.5h71.76q26.52,0,40.37-11.12T156,1815.83q0-14.82-5.65-25t-15-14.43A84.87,84.87,0,0,0,99.84,1768.64Z"/><path class="cls-1" d="M212.55,1892.66l74.1-269.88h65.52l74.1,269.88H396.63l-19.5-69.42H261.69l-19.5,69.42Zm96.72-244.14-40.95,147.81H370.5l-40.95-147.81Z"/><path class="cls-1" d="M498.81,1789.31v103.35h-30V1622.78h99.84q42.9,0,64.54,19.89t21.65,62q0,62.4-49.53,78.39l51.87,109.59H624l-48.75-103.35Zm70.2-26.52q55,0,55-56.75t-55.38-56.74H498.81v113.49Z"/><path class="cls-1" d="M872,1888.37q-40.17,8.19-72.15,8.19t-51.68-8.78a64.71,64.71,0,0,1-30.42-27.3Q707.07,1842,703,1818t-4.09-59.86q0-35.88,4.09-60.26t14.82-43.09a63.51,63.51,0,0,1,30.23-27.3q19.5-8.58,50.7-8.58t73.32,8.58l-1.17,25.35q-39.4-7-70.2-7-42.92,0-56.75,25.54t-13.84,87.17q0,30.81,2.53,49.53a108.56,108.56,0,0,0,9.95,33.73q7.4,15,21.64,21.45t41.73,6.44q27.5,0,64.94-7Z"/><path class="cls-1" d="M921.17,1892.66V1622.78h164.19v26.52H951.2v93.21H1062v26.13H951.2v97.5h134.16v26.52Z"/><path class="cls-1" d="M1285.43,1892.66H1136.84V1622.78h30v243h118.56Z"/><path class="cls-1" d="M1518.26,1759.67q0,72.15-23,104.52t-83.65,32.37q-60.64,0-83.66-33.15t-23-104.33q0-71.16,23.4-105.69t83.07-34.51q59.67,0,83.27,34.32T1518.26,1759.67Zm-182.52-.78q0,59.28,15.6,85.21T1411.6,1870q44.65,0,60.06-25.35t15.4-85q0-59.67-16-87t-59.86-27.3q-43.87,0-59.67,27.1T1335.74,1758.89Z"/><path class="cls-1" d="M1573.25,1892.66V1622.78h56.16l103.35,243.36H1741V1622.78h29.64v269.88h-55L1610.69,1649.3h-7.41v243.36Z"/><path class="cls-1" d="M1813.1,1892.66l74.1-269.88h65.52l74.1,269.88h-29.64l-19.5-69.42H1862.24l-19.5,69.42Zm96.72-244.14-41,147.81h102.18l-41-147.81Z"/><path class="cls-1" d="M2058.79,1799.06v-27.3H2177v27.3Z"/><path class="cls-1" d="M2399.26,1888.37q-40.17,8.19-72.15,8.19t-51.67-8.78a64.62,64.62,0,0,1-30.42-27.3Q2234.28,1842,2230.2,1818t-4.1-59.86q0-35.88,4.1-60.26t14.82-43.09a63.49,63.49,0,0,1,30.22-27.3q19.5-8.58,50.7-8.58t73.32,8.58l-1.17,25.35q-39.39-7-70.2-7-42.9,0-56.74,25.54t-13.85,87.17q0,30.81,2.54,49.53a108.29,108.29,0,0,0,9.94,33.73q7.41,15,21.65,21.45t41.73,6.44q27.49,0,64.93-7Z"/><path class="cls-1" d="M2424.61,1892.66l74.1-269.88h65.52l74.1,269.88h-29.64l-19.5-69.42H2473.75l-19.5,69.42Zm96.72-244.14-40.95,147.81h102.18l-40.95-147.81Z"/><path class="cls-1" d="M2634.43,1649.69v-26.91h195v26.91h-82.29v243H2717.5v-243Z"/><path class="cls-1" d="M2825.52,1892.66l74.1-269.88h65.52l74.1,269.88H3009.6l-19.5-69.42H2874.66l-19.5,69.42Zm96.72-244.14-40.95,147.81h102.18l-40.95-147.81Z"/><path class="cls-1" d="M3230.34,1892.66H3081.75V1622.78h30v243h118.56Z"/><path class="cls-1" d="M3291.57,1811.54q0,58.5,63.18,58.5,32.76,0,49.34-13.85t16.57-44.65V1622.78h29.64v188q0,45.24-24,65.52t-70.79,20.28q-46.8,0-70.4-20.28t-23.59-65.52v-188h30Z"/><path class="cls-1" d="M3514.65,1892.66V1622.78h56.16l103.35,243.36h8.19V1622.78H3712v269.88h-55L3552.09,1649.3h-7.41v243.36Z"/><path class="cls-1" d="M3865.26,1892.66h-30V1779.17L3749,1622.78H3783l67.08,126.36,67.08-126.36h33.93l-85.8,156.39Z"/><path class="cls-1" d="M3945.6,1892.66l74.1-269.88h65.52l74.1,269.88h-29.64l-19.5-69.42H3994.74l-19.5,69.42Zm96.72-244.14-41,147.81h102.18l-41-147.81Z"/><path class="cls-1" d="M856.65,1239.63c-36.22.16-68.93.26-97.73.3-53.75.07-109.17-32.75-131.78-78-13.36-26.72-14.82-63.61-16.35-102.67-1.65-42-3.53-89.52-20.83-114.72-38.58-56.17-84.29-71.8-137.2-89.89-19.06-6.53-38.76-13.27-58.84-22.14-10.71-4.74-21.31-9.33-31.81-13.87-109.56-47.43-213.06-92.23-265-229.4-38-100.3-35-183.79,10-279.19C143.9,232.11,220,152.54,310.69,97.2,395.06,45.72,512.19,9.28,602.12,6.51c110.31-3.4,618.79-8.74,747-5.51,39,1,81.41,23.64,116.47,62.2,41.54,45.65,64.06,102.94,60.25,153.24-9.81,129.65-158.25,258.49-268.36,269.13-129.63,12.5-264.37,12.46-407,12.45-52.5,0-106.6,0-162.75.58-29.31.3-75.7,11.67-83.39,41.71-9.71,38,12,80.52,38.4,96.48,26,15.72,58.23,37.18,95.59,62,119.72,79.63,300.63,200,417.93,218.45,140.76,22.15,299,25,376.42,16.41,31.11-3.45,78.41-30.78,83.26-44.85,8.85-25.68,8.41-67.59,8-104.56-.41-40-.77-74.64,8.56-100.07,17.84-48.71,60.56-111.37,105.79-177.7,11.5-16.84,23.23-34,34.81-51.38,90.63-135.66,169.67-253.07,219.12-316C2030.89,90,2140.16,53,2195,52c55.38-1.24,129.31,18.6,180.61,47.69,110.71,62.8,317.28,184.29,536,312.92,273.81,161,556.94,327.56,698.87,406.66,2.57,1.42,11.83.64,21.16-6,8-5.65,10.75-11.86,10.42-13.77-10.67-59-71.41-226.74-112.57-311.15-9.76-8.71-50.73-19.54-75.43-26.08-44.32-11.72-82.59-21.86-103-43.16-30.59-31.92-111.79-116.65-50.49-243,36.92-76,114.42-154.9,274.31-98.61,64.73,22.81,122.16,41.71,177.69,60,70,23.06,142.41,46.9,229.91,78.65,41.7,15.14,41.92,69.43,24.87,276.86-4.14,50.5-8.07,98.28-8,125.88,8,5,31.71,9,44.88,11.15,32.21,5.38,80.89,13.48,81.25,57.74.21,26.61,1.17,54.52,2.11,81.5,3.54,102.3,6.87,198.9-24.94,265.48-35.43,74.12-133.42,178.62-240.37,179.1-12.1-.13-25.36.08-38.93.13-285.23,1.24-837.49,6.63-1420.62,12.32-599.27,5.85-1217,11.87-1545.92,13.29M604.28,75.92h0c-77.61,2.38-183.31,35.47-257,80.46-78.35,47.81-146.12,118-176.85,183.13-31,65.77-44.22,129.25-7.86,225.26C204,674.45,286.1,710,390,755c10.65,4.61,21.41,9.27,32.3,14.08C439.6,776.69,457,782.66,475.5,789,532,808.28,596,830.18,647.65,905.35c28.64,41.7,30.91,99.85,32.94,151.17,1.13,28.63,2.4,61.08,9.11,74.48,10.71,21.45,42.37,39.53,69.14,39.49,290.19-.39,977.94-7.09,1643-13.59,610.86-6,1187.64-11.6,1459.8-12.45h.11c71.59-.31,150.43-82.63,177.6-139.45,24.49-51.3,21.3-143.82,18.21-233.29-.78-22.65-1.59-45.93-2-68.85-6.92-1.61-16.19-3.15-23.15-4.31-38.36-6.39-102.59-17.09-103.15-76.55-.3-30.33,3.67-78.65,8.27-134.6,5.5-66.92,14.42-175.34,8.63-210.37-81.12-29.24-149.52-51.77-215.76-73.59C3674.6,185,3616.82,166,3551.45,143c-92.95-32.72-150.94-13.18-188.08,63.34-33.45,68.89-8.95,115.72,38.14,164.85,8.09,7.48,47.13,17.81,70.46,24,55.15,14.6,102.79,27.21,119.45,61.15,44,89.64,107.56,265.91,119.31,330.88,5.47,30.21-9.35,61.88-38.64,82.63-30.44,21.56-68,25.46-95.83,10-142.67-79.5-426.14-246.24-700.3-407.47C2657.51,343.82,2451.17,222.47,2341,160c-40.82-23.15-101.48-39-144.69-38.58-41.55.78-127.16,32.79-149,60.53-51.81,65.9-146.69,207.93-216,311.63-11.7,17.53-23.54,34.91-35.16,51.94-42.73,62.67-83.09,121.85-98,162.5-5,13.58-4.64,46.53-4.35,75.6.44,42.56.94,90.81-11.81,127.76-18,52.37-100.5,86.8-141.58,91.37-82,9.07-248.3,6.25-395.13-16.85C1012.88,965,831.74,844.51,699.48,756.53c-36.7-24.4-68.36-45.48-93.06-60.42-55.37-33.5-86-109.45-69.77-172.92,16.39-64,87.32-93.36,150.34-94,56.4-.62,110.76-.59,163.52-.58,140.86,0,274,.05,400.22-12.12,72.07-7,197.92-105.76,205.46-205.22,2.32-30.77-14.3-70.6-42.39-101.46-21.64-23.79-47.11-38.86-66.47-39.35-127.35-3.23-633.21,2.12-743,5.49"/></g></g></svg>