<svg xmlns="http://www.w3.org/2000/svg" viewBox="0 0 4229.3 3181.35"><defs><style>.cls-1{fill:#fff;}</style></defs><title>Gilles Villeneuve - White_1</title><g id="Layer_2" data-name="Layer 2"><g id="Layer_1-2" data-name="Layer 1"><path class="cls-1" d="M152.51,3032.38v-34.85H249v171.7q-63.63,12.12-113.63,12.12-76.26,0-105.8-43.93T0,3001.82Q0,2910.17,29.54,2866t104.79-44.19a497.12,497.12,0,0,1,97.47,10.1l17.17,3-1.52,32.32q-62.62-10.6-108.57-10.6-58.08,0-78.28,33.58t-20.2,111.6q0,78,20.2,111.61T138.37,3147a382.32,382.32,0,0,0,72.21-7.07V3032.38Z"/><path class="cls-1" d="M325.22,3176.3V2826.84H364.1V3176.3Z"/><path class="cls-1" d="M641.85,3176.3H449.44V2826.84h38.89v314.62H641.85Z"/><path class="cls-1" d="M883.74,3176.3H691.33V2826.84h38.89v314.62H883.74Z"/><path class="cls-1" d="M933.22,3176.3V2826.84h212.61v34.34H972.11v120.7h143.42v33.83H972.11V3142h173.72v34.34Z"/><path class="cls-1" d="M1307.43,2855.63q-75.75,0-75.75,57.06,0,31.82,17.42,43.68t70.7,23.74q53.28,11.86,75.5,30.8t22.22,62.37q0,107.56-111.61,107.57-36.87,0-92.41-8.59l-18.18-2.52,4-32.32q68.67,9.09,104.53,9.09,74.73,0,74.74-70.2,0-28.28-16.41-40.65t-61.36-21q-59.08-12.61-83.83-32.57t-24.74-66.91q0-93.93,112.61-93.93,36.86,0,88.38,7.57l17.17,2.53-3.54,32.82Q1336.71,2855.63,1307.43,2855.63Z"/><path class="cls-1" d="M1794.24,2826.84h40.4l-91.41,349.46h-86.86L1565,2826.84h40.4L1685.66,3142h28.28Z"/><path class="cls-1" d="M1889.67,3176.3V2826.84h38.89V3176.3Z"/><path class="cls-1" d="M2206.3,3176.3H2013.9V2826.84h38.88v314.62H2206.3Z"/><path class="cls-1" d="M2448.19,3176.3h-192.4V2826.84h38.88v314.62h153.52Z"/><path class="cls-1" d="M2497.68,3176.3V2826.84h212.6v34.34H2536.56v120.7H2680v33.83H2536.56V3142h173.72v34.34Z"/><path class="cls-1" d="M2776.94,3176.3V2826.84h72.72L2983.48,3142h10.61V2826.84h38.38V3176.3h-71.21l-135.84-315.12h-9.6V3176.3Z"/><path class="cls-1" d="M3118.32,3176.3V2826.84h212.6v34.34H3157.2v120.7h143.42v33.83H3157.2V3142h173.72v34.34Z"/><path class="cls-1" d="M3433.94,3071.26q0,75.75,81.81,75.75,42.42,0,63.88-17.93t21.46-57.82V2826.84h38.38v243.41q0,58.59-31,84.84t-91.66,26.26q-60.6,0-91.16-26.26t-30.55-84.84V2826.84h38.89Z"/><path class="cls-1" d="M3921.26,2826.84h40.4l-91.41,349.46H3783.4L3692,2826.84h40.4l80.3,315.12H3841Z"/><path class="cls-1" d="M4016.7,3176.3V2826.84h212.6v34.34H4055.58v120.7H4199v33.83H4055.58V3142H4229.3v34.34Z"/><path class="cls-1" d="M2167.49,265c47.2,13.47,92.36,37.65,127.46,59.94,109.07,69.26,323,231.75,467.53,363.27,117.2,106.58,257.15,284.86,416,529.86,25.93,40-1.72,73.71-18.24,93.87-17.79,21.69-25.21,33-21.59,49.75,16.42,76.34,74.68,163.21,92.15,188,64.58,91.73,152.52,204.83,235.2,302.56,75.42,89.13,134,142.61,236.81,228.78,39.6,33.2,172.79,97,244.32,131.21,27.12,13,46.72,22.37,56,27.44,1.65.91,3.91,2,6.61,3.27,22.25,10.68,68.53,32.91,80.68,75.55,4.46,15.67,5.92,40.35-12.44,69.12-44.94,70.39-121.83,28-150.72,12.05-5.14-2.82-9.72-5.4-13.6-7.18-23.06-10.54-51.38-31.79-81.38-54.28-25.83-19.38-58-43.49-72.59-48.38-47.61-16-102-32-154.57-47.55-43.31-12.78-84.24-24.85-118.1-35.94-84.54-27.65-193.06-67.62-280.27-99.74l-44.95-16.54c-61.35-22.5-172.5-64.6-227.58-93.67-207.28-109.37-668.17-357-927.42-496.69-121.71-65.6-279.82-154.12-374.28-207l-23-12.85c-35.84-20.05-21.91-60.91-15.21-80.54,1-2.87,2.3-6.74,3.39-10.28-65.24-37-190.67-102.62-323-171.83C1095.86,923.73,893.16,817.73,773.67,748.4,641.59,671.73,546.54,589.87,445.6,465.86l-9.06-11.26c-22.4-28-50.29-62.79-76.93-70.4-5.11.29-23.12,11.79-33.89,18.65-37.27,23.82-106.69,68.08-166.19-9.14-18.79-24.37-26.25-51.7-21.6-79,10.43-61.17,76.52-104.12,116-129.79,3.73-2.44,7.13-4.65,10.08-6.63,70.11-47.06,126.61-82.6,215.31-111.51C583.48,32.79,804.77-9.4,897.05,1.86,939.67,7,956.88,43.19,969.51,69.62c6.3,13.19,14.17,29.62,20.93,31.55,40.39,11.5,99.41,11.94,167.73,12.46,36.07.26,73.39.55,112.21,2.48,9.68.49,26.9-4.79,45.12-10.37,45.67-14,114.69-35.13,205.34-12.24,62.36,15.81,121.08,62.52,178,107.77,14.72,11.73,29.18,23.25,43.25,33.8,24.73,18.5,49.18,42.48,72.81,65.67,37,36.27,78.73,77.39,109,81.51,10.14,1.39,12.85,1.76,30.43-31.38,18.19-34.31,45.68-86.16,121.48-95.2,30-3.59,61.32.67,91.75,9.36m951.3,987.72c-154.87-238.61-290.33-411.37-402.67-513.54-141.95-129.11-351.46-288.34-458.09-356-67.28-42.72-130.74-64.25-174.13-59.07-38,4.55-50.92,25.41-68.76,59.08-16,30.12-40.13,75.64-100.67,67.35-52.61-7.21-101.07-54.68-147.86-100.58-22-21.62-44.81-44-65.85-59.73-14.6-10.91-29.6-22.85-44.87-35-51.16-40.71-104.51-83.09-151.91-94.88-72-18.17-125.4-1.83-168.3,11.32-25.2,7.71-47,14.38-68.71,13.3-37.4-1.85-74-2.12-109.33-2.39-73.34-.56-136.69-1.05-186.05-15.1l-.08,0C934.91,157,919,123.68,907.35,99.36c-5.12-10.65-13.54-28.49-18.64-29.1-74.13-9.05-281.44,27.26-388,62C420.24,158.47,370,190.14,302.43,235.48c-3.2,2.13-6.88,4.54-10.95,7.18-26.05,16.93-80.26,52.17-85.6,83.59-1,5.61-.89,13.56,8.23,25.38,18.06,23.46,28.49,22.53,74.53-6.86,26.64-17,56.83-36.27,89.89-26.83,47.78,13.64,83.3,58,111.81,93.6l8.7,10.81C595.59,541,682.29,615.68,808.28,688.79,926.44,757.37,1128.43,863,1306.65,956.18c147.32,77,274.56,143.57,337,179.8,37.65,21.83,22.94,64.93,15.88,85.64-.62,1.83-1.37,4-2.08,6.13l8.66,4.85c94.29,52.79,252.11,141.14,373.33,206.48,259.13,139.68,719.8,387.15,926.88,496.4,53.44,28.22,171.07,72.28,219.15,89.92l45,16.56c86.67,31.93,194.54,71.66,277.88,98.93,32.9,10.77,73.36,22.69,116.18,35.34,53.19,15.68,108.17,31.93,157,48.29,25.15,8.44,57.62,32.81,92,58.6,24.54,18.41,52.38,39.29,68.69,46.74,5.2,2.38,11.38,5.73,18.21,9.5,45.92,25.33,53.07,21.13,59.36,11.22,2.52-3.95,5.31-9.44,4.25-13.15-3.66-12.83-34.2-27.5-44.22-32.32-4.08-2-7.47-3.61-9.9-5-7.63-4.17-28.48-14.15-52.64-25.72-107.55-51.48-216.13-104.76-258.84-140.56-103.77-87-166.93-144.65-245.15-237.09-83.92-99.19-173.23-214.1-238.93-307.38-24.81-35.25-84.54-126.57-103.18-213.19-11-51,17.09-85.28,35.67-107.94,3.84-4.69,9.26-11.29,11.87-15.53m-1475.6-33-.13,0Z"/></g></g></svg>