<svg xmlns="http://www.w3.org/2000/svg" viewBox="0 0 3275.4 4259.39"><defs><style>.cls-1{fill:#fff;}</style></defs><title>Hungaroring - White</title><g id="Layer_2" data-name="Layer 2"><g id="Layer_1-2" data-name="Layer 1"><path class="cls-1" d="M216.64,4254.35V4096.28H38.88v158.07H0V3904.88H38.88v156.56H216.64V3904.88H255v349.47Z"/><path class="cls-1" d="M377.23,4149.3q0,75.75,81.81,75.75,42.42,0,63.88-17.92t21.46-57.83V3904.88h38.38v243.41q0,58.59-31,84.84t-91.66,26.26q-60.6,0-91.15-26.26t-30.56-84.84V3904.88h38.89Z"/><path class="cls-1" d="M666.09,4254.35V3904.88h72.72L872.63,4220h10.61V3904.88h38.38v349.47H850.41L714.57,3939.22H705v315.13Z"/><path class="cls-1" d="M1145.83,4110.42v-34.84h96.46v171.7q-63.63,12.12-113.63,12.11-76.26,0-105.79-43.93t-29.55-135.59q0-91.66,29.55-135.85t104.78-44.18a497.12,497.12,0,0,1,97.47,10.1l17.17,3-1.52,32.33q-62.61-10.62-108.57-10.61-58.08,0-78.28,33.58t-20.2,111.61q0,78,20.2,111.6t77.77,33.58a383.22,383.22,0,0,0,72.22-7.06V4110.42Z"/><path class="cls-1" d="M1287.74,4254.35l96-349.47h84.84l96,349.47H1526.1l-25.25-89.89H1351.37l-25.25,89.89ZM1413,3938.21l-53,191.4h132.31l-53-191.4Z"/><path class="cls-1" d="M1658.4,4120.52v133.83h-38.88V3904.88H1748.8q55.54,0,83.58,25.76t28,80.3q0,80.79-64.13,101.5l67.16,141.91h-42.92l-63.13-133.83Zm90.9-34.34q71.21,0,71.21-73.48t-71.71-73.48h-90.4v147Z"/><path class="cls-1" d="M2192.69,4082.14q0,93.44-29.79,135.34t-108.32,41.91q-78.54,0-108.33-42.92t-29.79-135.09q0-92.15,30.3-136.85t107.56-44.69q77.26,0,107.82,44.44T2192.69,4082.14Zm-236.34-1q0,76.77,20.2,110.34t78,33.58q57.81,0,77.77-32.82t19.94-110.09q0-77.26-20.7-112.61t-77.52-35.35q-56.81,0-77.26,35.09T1956.35,4081.13Z"/><path class="cls-1" d="M2302.78,4120.52v133.83h-38.89V3904.88h129.28q55.54,0,83.58,25.76t28,80.3q0,80.79-64.14,101.5l67.17,141.91h-42.93l-63.12-133.83Zm90.9-34.34q71.21,0,71.2-73.48t-71.71-73.48h-90.39v147Z"/><path class="cls-1" d="M2575,4254.35V3904.88h38.89v349.47Z"/><path class="cls-1" d="M2699.19,4254.35V3904.88h72.72L2905.74,4220h10.6V3904.88h38.38v349.47h-71.2l-135.85-315.13h-9.59v315.13Z"/><path class="cls-1" d="M3178.94,4110.42v-34.84h96.46v171.7q-63.63,12.12-113.63,12.11-76.26,0-105.8-43.93t-29.54-135.59q0-91.66,29.54-135.85t104.79-44.18a497.12,497.12,0,0,1,97.47,10.1l17.17,3-1.52,32.33q-62.62-10.62-108.57-10.61-58.08,0-78.28,33.58t-20.2,111.61q0,78,20.2,111.6t77.77,33.58A383.3,383.3,0,0,0,3237,4218V4110.42Z"/><path class="cls-1" d="M3169.08,2343.74c-1.44,1.85-2.93,3.69-4.5,5.47-34.54,39.34-114.53,128.87-207.13,232.55-181.42,203.1-429.87,481.27-494.4,558.71-15.36,18.4-35.55,28.29-58.42,28.62-64.88.92-135.39-78.88-197.59-149.31-10.27-11.6-20-22.61-29-32.37-71.58-77.86-169.48-171.66-215.26-193.58-74.1-35.47-101.6-18.51-118.52,3.15l-.45.58c-16.77,21.77-29.29,55.06,23.05,120,22.58,28,77.36,64.71,130.35,100.21,70.27,47.09,142.92,95.78,174.76,144.61,48.31,74,75.06,184.26,6.17,272.49-.44.57-.91,1.14-1.37,1.73-75.43,94.51-213.12,101.18-285.84,44-63.52-50-159.44-125.19-274.91-215.75C1137,2889.1,335.28,2260.28,92,2058.92c-34.24-28.28-34-85-12.35-120.16,19-30.82,75.65-68,120.11-69.57,49.25-1.7,116,4.39,183.08,16.73,77.45,14.25,166.18,32.24,239.3,65.51,64.53,29.39,121.61,73,176.79,115.07,9.42,7.19,18.79,14.35,28.2,21.41,42.42,31.93,104.13,82.54,169.49,136.11,87.73,72,178.45,146.34,225.3,177.7,20.38,13.64,53.81,20.13,77.74,15.1,20.65-4.35,48.52-24.47,63.39-45.89,14.45-20.74,26.77-51.18,21.73-72.44-8.63-36.42-46.92-108-74.86-160.21-8.68-16.25-16.84-31.5-23.7-44.82-5.35-10.4-12.69-22.49-20.48-35.29-30.84-50.74-69.25-113.93-43.43-171.14,100.09-221.69,322.73-691.47,410.78-866.65,25.89-51.59,79.46-119.25,126.67-179,32.72-41.38,77.31-97.79,83.81-115.94-2.42-54.22-33.38-158.58-63.35-259.59-29-97.54-56.28-189.68-61.2-246.17C1713.3,153.56,1758,77.26,1802.89,39c47.55-40.47,117.27-44.35,166.65-34.45,53.85,10.77,110.93,50.64,164.79,90.55,46.43,34.39,105.35,87.43,175.13,157.63,65.83,66.17,182.59,193.09,223.11,242.49,18.84,23,27,51.65,21.8,76.63-4.07,19.49-18.12,34.49-33,50.33-7.49,8-23.16,24.66-23.94,31.26,8.67,79.34,80.54,325.87,110.82,408.4,6.56,17.91,28.51,36,53.41,43.91,29.17,9.35,92.3,15.75,143,20.88,29.52,3,57.43,5.82,77.29,9,63.11,10.08,114.07,73.66,130.1,115.6,9.34,24.43,3.8,73.9-14.41,209.07-15.34,114-38.54,286.31-22,334.06,31,89.49,146.32,258.68,195.57,330.93,32.86,48.22,47.21,155.21-2.18,218.43M1788.59,2753.51c45.82-58.66,114.7-66.54,204.74-23.41,75.13,36,210.42,180.83,236.77,209.49,9.25,10.06,19.3,21.43,29.89,33.41,38.86,44,111.22,125.9,143.63,125.44,1.27,0,2.5,0,5.15-3.22,65.31-78.37,304.1-345.71,496-560.52,92.49-103.56,172.38-193,206.72-232.11,28.14-32.43,21-108.68,1.38-137.5-84-123.22-173.88-260.87-203.94-347.56-20.49-59.1-5.16-189.23,18.75-366.63,9.37-69.68,21-156.17,17.93-175.67-10.62-26.28-43.54-64.81-74.76-69.79-17.87-2.86-44.77-5.6-73.26-8.48-56.82-5.75-121.23-12.28-157.45-23.87s-81.25-40.57-98.22-86.92c-28.2-76.94-104.85-334.74-114.72-425.62-4-36.95,23-65.71,42.66-86.7,5.16-5.49,12.6-13.55,15.42-17.67-.15-3.48-2.5-10.18-7.35-16.12-38.72-47.21-155.16-173.71-218.56-237.48-67.29-67.69-123.5-118.39-167.09-150.68-35.07-26-93.76-69.46-136.6-78.05-41-8.2-84-.58-107,19C1818,119,1786.09,175,1789.42,213.54c4.29,49.35,31.87,142.31,58.54,232.18,33.24,112,64.64,217.85,66.37,280.49.81,29.82-25,65.22-99.14,159-45.19,57.1-96.29,121.78-119,166.92-87.73,174.58-309.71,642.91-409.49,864-10.5,23.27,18.34,70.72,39.4,105.38,8.46,13.9,16.44,27,22.93,39.66,6.7,13,14.68,27.92,23.19,43.82,33.06,61.82,70.55,131.87,81.3,177.23,13.53,57.1-21.47,113.28-32.53,129.14-21.21,30.3-62.42,65.29-106.78,74.63-42.54,9-95.44-1.3-131.61-25.53-49.69-33.23-141.77-108.73-230.82-181.77-64.76-53.09-125.91-103.24-167.16-134.28q-14.28-10.76-28.57-21.72c-52.07-39.74-105.93-80.83-163.22-106.92-65.78-30-149.49-46.84-222.78-60.31-62.3-11.45-123.48-17.15-167.87-15.61-18.9.64-55.22,24.57-62.4,36-5.38,8.74-5.38,25-2.3,29.11,242.11,200.35,1043.39,828.79,1522.15,1204.27,115.53,90.59,211.47,165.85,275,215.81,44.79,35.24,138.16,28.58,186.92-32.52.28-.35.59-.72.88-1.09,59.43-76.09,2.45-171.91-9.63-190.44-24-36.74-93.54-83.38-154.91-124.5-60-40.22-116.7-78.22-146-114.56-62.38-77.34-70.47-147.14-24.06-207.43ZM2946.06,1276.42a.21.21,0,0,0,0,.07.21.21,0,0,1,0-.07M109.74,1957.28l.08-.11Z"/></g></g></svg>