<svg xmlns="http://www.w3.org/2000/svg" viewBox="0 0 3977.23 3200.85"><defs><style>.cls-1{fill:#fff;}</style></defs><title>Las Vegas - White_1</title><g id="Layer_2" data-name="Layer 2"><g id="Layer_1-2" data-name="Layer 1"><path class="cls-1" d="M944.32,3195.8H751.91V2846.34H790.8V3161H944.32Z"/><path class="cls-1" d="M963,3195.8l96-349.46h84.84l96,349.46h-38.38l-25.25-89.89H1026.63l-25.25,89.89Zm125.24-316.13-53,191.4h132.31l-53-191.4Z"/><path class="cls-1" d="M1387.71,2875.13q-75.75,0-75.75,57.06,0,31.82,17.42,43.69t70.7,23.73q53.26,11.88,75.5,30.81t22.22,62.36q0,107.56-111.61,107.57-36.87,0-92.41-8.59l-18.18-2.52,4-32.32q68.67,9.09,104.53,9.09,74.73,0,74.74-70.2,0-28.28-16.41-40.65t-61.36-21q-59.09-12.61-83.83-32.57t-24.74-66.91q0-93.93,112.61-93.93,36.85,0,88.38,7.57l17.17,2.53-3.54,32.83Q1417,2875.13,1387.71,2875.13Z"/><path class="cls-1" d="M1874.52,2846.34h40.39l-91.4,349.46h-86.86l-91.4-349.46h40.4l80.29,315.13h28.28Z"/><path class="cls-1" d="M1970,3195.8V2846.34h212.61v34.34H2008.84v120.7h143.42v33.84H2008.84v126.25h173.72v34.33Z"/><path class="cls-1" d="M2383.55,3051.88V3017H2480v171.7q-63.63,12.12-113.62,12.12-76.26,0-105.8-43.93T2231,3021.33q0-91.66,29.54-135.85t104.79-44.18a497,497,0,0,1,97.46,10.09l17.17,3-1.51,32.32q-62.62-10.6-108.58-10.6-58.08,0-78.27,33.58t-20.2,111.61q0,78,20.2,111.6t77.77,33.58a382.4,382.4,0,0,0,72.21-7.07V3051.88Z"/><path class="cls-1" d="M2525.45,3195.8l96-349.46h84.84l96,349.46h-38.38l-25.25-89.89H2589.08l-25.25,89.89Zm125.24-316.13-53,191.4H2730l-53-191.4Z"/><path class="cls-1" d="M2950.16,2875.13q-75.75,0-75.75,57.06,0,31.82,17.42,43.69t70.7,23.73q53.28,11.88,75.5,30.81t22.22,62.36q0,107.56-111.61,107.57-36.87,0-92.41-8.59l-18.18-2.52,4-32.32q68.67,9.09,104.53,9.09,74.73,0,74.74-70.2,0-28.28-16.41-40.65t-61.36-21q-59.09-12.61-83.83-32.57T2835,2934.72q0-93.93,112.61-93.93,36.85,0,88.38,7.57l17.17,2.53-3.54,32.83Q2979.44,2875.13,2950.16,2875.13Z"/><path class="cls-1" d="M3956.35,759.19v0l20.88,1369.64a36.66,36.66,0,0,1-.71,7.75l-13.23,66.25a36.65,36.65,0,0,1-6.35,14.45l-28.79,39.46c-.7,1-1.45,1.89-2.24,2.78L3790,2412.16a36.69,36.69,0,0,1-27.85,12.29l-83.93-1-471.26,5.34c-.5,0-1,0-1.5,0l-570.25-16.88-937.57-3.71a35.71,35.71,0,0,1-3.87-.22L1524,2389.28c-.8-.08-1.61-.2-2.41-.34l-270.48-48.07a37.81,37.81,0,0,1-4.11-1l-302.22-90.51c-.47-.14-.93-.29-1.4-.45l-139.21-47.84a37,37,0,0,1-5-2.15L19.78,1793.44a36.71,36.71,0,0,1-18.71-41.33l39.15-159.36.21-.84,26.45-97.69c.32-1.18.7-2.34,1.13-3.48l26.31-69a36.68,36.68,0,0,1,7.7-12.22L166,1342.19a37.51,37.51,0,0,1,5.62-4.83l63.13-44a36.3,36.3,0,0,1,5.79-3.29l291.24-132.56,54.84-35.74,34.7-42.73,22-35.3,29.38-63.54,12.06-45.82,1.51-131.33L694.63,104A36.73,36.73,0,0,1,730,67.72L749.89,67a36.27,36.27,0,0,1,4,.07l20.91,1.55A37.07,37.07,0,0,1,782.37,70l136.1,39.5,28.18-1.53,1.42-1.31.31-59.37a36.68,36.68,0,0,1,6.08-20.06l3.79-5.73a36.93,36.93,0,0,1,11-10.77l5.32-3.37a36.81,36.81,0,0,1,12.61-5L995.47.68a36.87,36.87,0,0,1,9.2-.62l53.15,3.11a36.91,36.91,0,0,1,3.79.42l57.44,9.4a37,37,0,0,1,7,1.87l68.84,25.92a36.55,36.55,0,0,1,7.46,3.84l52.29,34.94a38,38,0,0,1,4,3.07l68.62,60.93a36.74,36.74,0,0,1,5.5,6.12l32.57,45.61a36.58,36.58,0,0,1,3.78,6.67l76.06,174.58a36.66,36.66,0,0,1,3.06,14.66l.07,355.42L3421,699.74l11.87-13.16,9.64-13.91,2.17-20.46-4.06-31.81-17.76-32.8-19.65-20.52L3295.71,454.21a36.41,36.41,0,0,1-3.75-4.64l-95.37-139.85a36.21,36.21,0,0,1-2.46-4.17l-17.89-35.5a36.63,36.63,0,0,1-3.72-12.69l-7.07-67.31a37.08,37.08,0,0,1,2.05-16.51l16.57-45a36.47,36.47,0,0,1,7.08-11.79l21.09-23.61a36.72,36.72,0,0,1,9.49-7.61L3246,72a36.8,36.8,0,0,1,17.29-4.64l37-.61a36.66,36.66,0,0,1,14.27,2.64L3356,86a36.43,36.43,0,0,1,10.2,6.18l491.41,420.36a36.41,36.41,0,0,1,6.64,7.48l37.93,56.65a36.84,36.84,0,0,1,4.7,10l48,162.7A36.45,36.45,0,0,1,3956.35,759.19Zm-52.61,1366.89L3883,765.37l-45-152.51-32-47.81L3323,151.9l-29-11.62-20.35.34-10.8,6-12.32,13.8-11.2,30.44,5.47,52.13,13.78,27.34L3351,405.72l128.4,134.65a36.72,36.72,0,0,1,5.77,7.91l23.39,43.18a36.78,36.78,0,0,1,4.13,12.83l5.48,42.87a38,38,0,0,1,.09,8.53l-3.62,34.07a36.69,36.69,0,0,1-6.34,17l-16.32,23.54A35.39,35.39,0,0,1,3489,734l-24,26.65a36.71,36.71,0,0,1-26.4,12.12L1412.45,820.93a36.71,36.71,0,0,1-37.59-36.7l-.08-385.37-71.46-164-27.93-39.1-63.64-56.51L1165.07,108l-61.48-23.15-52-8.51-30-1.75-.22,41.95a36.73,36.73,0,0,1-3.44,15.32L1012.83,143a36.9,36.9,0,0,1-8.27,11.38l-17.64,16.4a36.69,36.69,0,0,1-23,9.77l-47.69,2.57a36.56,36.56,0,0,1-12.22-1.4L767.62,142.16l-8,661.75-1.55,135.85a36.39,36.39,0,0,1-1.21,8.93l-14,53.34a37.1,37.1,0,0,1-2.18,6.06L709,1076.63a37.79,37.79,0,0,1-2.17,4l-24.41,39.18a37.65,37.65,0,0,1-2.66,3.73l-39.77,49a36.74,36.74,0,0,1-8.46,7.62l-62,40.4a37.3,37.3,0,0,1-4.84,2.66L274,1355.53l-57.32,40-56.3,59.24-23,60.46-25.85,95.5L79.27,1741.61,830.6,2132.52l135.94,46.72L1266,2268.93l267.23,47.49,166.61,18.35,936.11,3.7.94,0,569.95,16.87,471-5.34h.85l67.62.8,123.61-138.76,23-31.49Z"/></g></g></svg>