<svg xmlns="http://www.w3.org/2000/svg" viewBox="0 0 3960.36 2610.49"><defs><style>.cls-1{fill:#fff;}</style></defs><title>MONZA - White</title><g id="Layer_2" data-name="Layer 2"><g id="Layer_1-2" data-name="Layer 1"><path class="cls-1" d="M1432.05,2606.83V2353.66h50.86l71.7,214,71.71-214h50.85v253.17H1649V2383.66h-5.12l-73.54,214h-31.46l-73.53-214h-5.13v223.17Z"/><path class="cls-1" d="M1929.24,2482.08q0,67.68-21.59,98t-78.47,30.37q-56.9,0-78.48-31.1t-21.58-97.86q0-66.77,22-99.15T1829,2350q56,0,78.11,32.19T1929.24,2482.08Zm-171.22-.74q0,55.62,14.63,79.94t56.53,24.33q41.88,0,56.34-23.78t14.45-79.75q0-56-15-81.59t-56.16-25.61q-41.16,0-56,25.43T1758,2481.34Z"/><path class="cls-1" d="M1980.82,2606.83V2353.66h52.68L2130.45,2582h7.68V2353.66h27.8v253.17h-51.58l-98.41-228.29h-7v228.29Z"/><path class="cls-1" d="M2212.76,2378.54v-24.88h164.63v32.93l-132.44,188V2582h132.44v25.25H2212.76v-32.56l132.07-188v-8.05Z"/><path class="cls-1" d="M2401.9,2606.83l69.51-253.17h61.46l69.51,253.17h-27.8l-18.29-65.12H2448l-18.3,65.12Zm90.73-229-38.41,138.66h95.85l-38.42-138.66Z"/><path class="cls-1" d="M2840.56,2088.48c-225-4.42-479.58-12.12-716.15-19.28-263.29-7.94-490.68-14.82-621.88-15.55l-.91,0c-42.26-.84-52-45.76-57.92-72.68-.61-2.9-1.42-6.54-2.28-10.14-88.8,39.33-187.26,77.25-389.89,76.83-147.38-.43-358.73-18.15-489.72-168.67-126.57-145.38-192.52-299.72-220.48-516-8.13-62.81-15.61-131.17-22.84-197.27C304,1033.93,290.39,909.45,272.7,829.28c-1.82-8.14-1.82-8.14-16.57-12.5-23.76-7-68-20-74.1-94-3.84-46.83-52.16-156.48-94.79-253.21C53,391.87,20.71,318.53,4.58,265.2-6.2,229.65,2.21,186.89,28.3,144.67c19.66-31.87,53.1-68.09,87.86-74C203.53,55.88,272.26,44,326.94,34.55,515.68,1.93,539.88-2.31,584.3.88,639.51,4.79,695.81,92.24,820.55,306c25.37,43.5,49.37,84.61,71.68,120.82C1017.16,629.49,1248,851.24,1410.8,1000.38c66.53,61,132.78,133.24,196.83,203.11,75.33,82.16,146.47,159.73,198.14,195.55,12,8.37,30.25,6.47,61.53,2.46,33.76-4.37,75.8-9.76,124.07,3.55,32.08,8.86,58.17,34.57,83.43,59.46,19.2,18.94,43.1,42.49,57.68,43.32,161.15,8.94,503.38,22.54,834.33,35.7,334,13.27,679.37,27,836.54,35.88,82.07,4.62,151.58,94,156.66,167.73,5.36,77.11-51.67,194.48-156.28,257.52-116.77,70.33-322.67,83.22-527.8,86.68-115.22,1.93-267,.45-435.37-2.86m-1221.38-107c132.16,2.62,309.7,8,507.46,13.93,412.75,12.46,880.58,26.66,1148.07,22.13,185.45-3.12,388.85-14.6,490.95-76.1,90.82-54.7,123.45-150.25,120.75-189.26-2.78-40.46-46.43-96.87-87.22-99.18-156.56-8.79-501.62-22.56-835.32-35.81-331.26-13.16-673.75-26.79-835.51-35.76-42.42-2.35-75.89-35.33-105.41-64.43-17.68-17.41-37.73-37.14-51.23-40.93-34-9.4-65-5.41-95-1.51-37.89,4.89-77,9.93-113-15-58.38-40.48-132.25-121-210.44-206.32-63-68.71-128.16-139.76-192.32-198.55C1194.91,902.6,959.17,676,829.41,465.42c-22.79-37-47-78.44-72.62-122.34C701.82,248.87,610.25,92,576.42,74.19c-34.08-1.94-64.32,3.14-237,33-54.73,9.46-123.51,21.33-211,36.19-17.31,5.83-63.79,66.07-53.39,100.37,14.87,49,47.78,123.74,79.6,196,49.34,112,95.94,217.74,100.82,276.93C257.46,740.2,260,741,277,745.94c19.72,5.83,56.5,16.68,67.7,67.32,18.62,84.09,32.44,210.49,47.12,344.33,7.2,65.74,14.66,133.74,22.69,195.84,32.62,252.44,121,382.87,203,477.16,84.69,97.3,222.69,143,434.24,143.35,201.47.4,287.6-38.11,378.81-78.93,15.82-7.1,32.32-7,46.42.11,26.44,13.35,33,43.57,38.83,70.23.94,4.36,2.15,9.93,3.39,14.74,29.38.23,62.89.75,100,1.49M579,74.45h.12a.24.24,0,0,0-.12,0"/></g></g></svg>