<svg xmlns="http://www.w3.org/2000/svg" viewBox="0 0 4375.38 2850.33"><defs><style>.cls-1{fill:#fff;}</style></defs><title>Suzuka - White_1</title><g id="Layer_2" data-name="Layer 2"><g id="Layer_1-2" data-name="Layer 1"><path class="cls-1" d="M1279.81,2524.6q-75.75,0-75.75,57.07,0,31.82,17.42,43.68t70.7,23.74q53.28,11.86,75.5,30.8t22.22,62.37q0,107.56-111.61,107.56-36.87,0-92.41-8.58l-18.18-2.53,4-32.32q68.67,9.09,104.53,9.09,74.73,0,74.74-70.19,0-28.27-16.41-40.65t-61.36-21q-59.09-12.61-83.83-32.57t-24.74-66.92q0-93.93,112.61-93.93,36.85,0,88.38,7.58l17.17,2.52-3.54,32.83Q1309.09,2524.61,1279.81,2524.6Z"/><path class="cls-1" d="M1493.42,2740.24q0,75.75,81.81,75.75,42.42,0,63.88-17.93t21.46-57.82V2495.82H1699v243.41q0,58.59-31,84.84t-91.66,26.26q-60.6,0-91.15-26.26t-30.56-84.84V2495.82h38.89Z"/><path class="cls-1" d="M1761.07,2530.16v-34.34h227.25v45.45l-182.81,259.57v10.1h182.81v34.84H1761.07v-44.94l182.3-259.57v-11.11Z"/><path class="cls-1" d="M2089.31,2740.24q0,75.75,81.81,75.75,42.42,0,63.89-17.93t21.46-57.82V2495.82h38.38v243.41q0,58.59-31.06,84.84t-91.65,26.26q-60.61,0-91.16-26.26t-30.55-84.84V2495.82h38.88Z"/><path class="cls-1" d="M2417.06,2845.28h-38.89V2495.82h38.89v162.61l57.57-2L2564,2495.82h44.44l-100,175.74L2614,2845.28h-46l-92.92-154.53-58.07,2Z"/><path class="cls-1" d="M2634.71,2845.28l95.95-349.46h84.84l95.95,349.46h-38.38l-25.25-89.89H2698.34l-25.25,89.89ZM2760,2529.15l-53,191.39h132.31l-53-191.39Z"/><path class="cls-1" d="M46.16,1750.83c62.43-73.14,130.58-60.22,156.13-55.39,2.3.45,4.27.86,5.86,1,42.4,2.11,100.37,10.24,161.78,18.86,67.6,9.48,137.52,19.27,194.55,22.29,22,1.15,51-27.73,79-55.64,37.15-37,79.27-79,136.22-89.36,73.4-13.35,142.51,21.79,203.51,52.77,46,23.37,89.4,45.44,124.17,42.26,40.18-3.66,69.92-38.37,104.38-78.56,36.74-42.84,78.41-91.41,142.39-108.15,75.84-19.81,163.2,13.78,203.86,57.74,18.77,20.27,42.16,59.63,69.26,105.2,21.36,35.95,57.17,96.12,70.3,106.06,23.32,14,69.73,22.18,100.69,17.48,41.48-6.3,93.31-25.36,132-48.53,39.68-23.77,96.17-60.71,127.34-106.14,27.72-40.32,75.45-118.83,83.73-191.93,8.45-74.26,1.56-175.28-17.54-257.34-13.74-59.06-44.23-200.4-30.89-237.44,10.8-30.1,108.68-159.36,109.66-160.67,109.9-144.94,126.34-146.8,153.12-137.26,11.92,4.23,73.22,37.61,152.15,82.24,11.39-5.9,22.93-11.67,34.37-17.39,24.5-12.29,49.84-25,72.66-38.37,35.23-20.69,82-48.38,135.17-79.8,178.05-105.34,421.9-249.59,551.69-320.36C3409,216,3525.67,161.61,3630.21,121.39c87.7-33.71,200.51-60.84,282.88-80.65L3940,34.26c151.14-36.67,257.24-43.93,315.36-21.64,35.59,13.63,94.86,50.62,112.1,96.61,16.57,44.09,6.63,113.94-24.17,169.83-27.7,50.31-83.78,138.05-147.65,160.4-57.43,20.13-163.26-14.26-285.46-57.76-27.83-9.91-54.09-19.26-65.86-22-9.18-2.12-18.82-4.47-28.8-6.88-54.3-13.15-115.87-28.05-169.13-26.37-57.15,1.8-123.58,17.24-192.12,44.63-53,21.19-110.13,54.88-174.63,103C3214.07,523,3166.94,567,3135.45,608.64c-32.68,43.25-61.88,106.94-74.4,162.28-9.5,42-.61,87.73,8,132s31.87,115,45.81,157.31c2.82,8.61,5.29,16.11,7.22,22.11,2,6.18,5.71,15.09,9.64,24.53,19.93,47.74,57.06,136.56-17.95,176.56-29,15.46-52.12,12.45-66.44,7.2-38-13.91-54.12-54.79-68.38-90.87-4.44-11.19-8.62-21.79-12.79-29.71-3.14-6-6.48-12.61-10-19.54-18.68-36.69-46.87-92.16-74.26-111-68-46.87-240.53-147.79-375-224.3-25,14.55-46.59,29.78-61.77,47.09-.22.23-.44.49-.66.75-27.12,31.77-58.62,120.82-74.65,189.11-29.12,124.08-20,259.74-13.32,358.78,7.54,112,12.33,235.47-9.34,302.26-10.5,32.46-45,33.64-67.78,34.45-21.37.74-45.56,1.59-57.18,14.89l0,0c-3.93,4.6-1.9,19.87-.11,33.34,2.08,15.81,4.45,33.71,1,52.11-7,38.13-14.92,75-33.41,107.59-21.5,38-54,68-77.47,86.45-26.8,21.13-76.67,60.43-129,76.55-53.48,16.49-144.4,35.06-224.55,33-278.53-6.94-1214.66-25.15-1499-25.74-44-.07-111.65-25-144.1-65-14.72-18.17-143-179.59-110.27-246.17,13-26.38,26.77-47.29,40.84-63.8m2055-53.58c-39.45,46.22-93.51,81.54-133,105.17-47,28.15-107.94,50.46-159,58.23-48.37,7.33-111.67-4.29-150.51-27.62-25.27-15.2-52.6-59.77-95.07-131.2-21.79-36.66-46.52-78.21-60-92.8-21.52-23.25-80.52-49.61-130.94-36.42-41.54,10.86-72.28,46.69-104.82,84.64-39.28,45.81-83.81,97.76-153.93,104.15-56,5.12-111.11-22.88-164.41-50-53-27-107.89-54.85-156.76-45.94-34.24,6.21-66.2,38.08-97.15,68.9-39.49,39.36-80.35,80.06-135.23,77.15-60.24-3.15-131.76-13.18-201-22.89-59.71-8.37-116.1-16.28-155.78-18.27a114.07,114.07,0,0,1-15.33-2.19c-26.32-5-70.21-13.28-115,75.75,1.66,25.21,51.63,110.69,99.8,170.18,15.07,18.61,58.91,37.63,86.86,37.69,284.8.58,1221.92,18.79,1500.68,25.74,66.66,1.67,148.92-13.74,200.88-29.76,39.08-12.06,81.91-45.8,104.92-63.94,26.17-20.61,46.51-43,58.83-64.73,12.83-22.62,18.91-51.66,25-84.49,1.25-6.82-.23-18.07-1.66-28.92-3.46-26-8.15-61.49,17.18-91.16l.65-.76c32.79-37.51,81.38-39.22,110.43-40.22,1.32-.07,2.73-.11,4.2-.16,14.17-69.76,5.11-204.13,1.52-257.43-7-103.72-16.56-245.79,15.11-380.69,3.81-16.25,38.55-159.5,90.54-220.44.41-.48.82-.94,1.23-1.41,12.74-14.53,27.9-27.51,44.6-39.42-38.39-21.51-69.39-38.56-87.59-48.18-44.32,45.64-166.78,212.38-183.37,244.19-1.51,20.28,11.14,103.45,32.79,196.53,21.18,91,28.45,199.25,19,282.47-9.61,84.63-57.69,169.39-96.32,225.59a274.69,274.69,0,0,1-17.44,22.62m229-979.6-.1.12ZM4221.26,328.06c18.93-22.19,38.94-51.51,57.22-84.63,24.43-44.36,26.17-90.69,19.65-108-6-15.95-40.35-42.49-69.42-53.64-19.89-7.62-86.12-20.5-271.44,24.48l-27,6.49c-80.37,19.34-190.46,45.81-273.6,77.78-101.58,39.08-215.06,92-319.56,149-128.64,70.13-371.85,214-549.43,319.07-53.24,31.48-100.09,59.22-135.41,79.92-21.79,12.8-44.77,24.55-67.3,35.86,131.63,75.61,281.4,164.42,339,204.13,42.79,29.52,73.48,89.86,98.14,138.34,3.38,6.65,6.58,13,9.61,18.75,6,11.39,11.08,24.34,16.05,36.84,6,15.3,17.21,43.55,25,48.58h0c.24-.29,2.43-.83,6.22-2.86,15.16-8.24-5.53-58.46-15.6-82.58-4.57-10.92-8.87-21.23-11.82-30.4-1.9-5.88-4.32-13.23-7.07-21.62-14.48-44-38.7-117.63-48.16-166.32-9.58-49.32-20.45-105.21-7.52-162.43,11.68-51.57,40.83-128.72,87.58-190.63,36.28-48.07,86.81-95.47,159-149.32,69.73-52,132.37-88.82,191.46-112.43,77.55-31,150.64-47.77,217.28-49.9,63.28-2,132.9,14.87,188.85,28.41,9.75,2.36,19.15,4.64,28.13,6.72,15.89,3.69,41.48,12.81,73.92,24.36,59.48,21.17,198.76,70.77,236.2,57.66,13.82-4.85,31.37-19.74,50-41.53"/></g></g></svg>