<svg xmlns="http://www.w3.org/2000/svg" viewBox="0 0 4006.62 2517.11"><defs><style>.cls-1{fill:#fff;}</style></defs><title>Albert Park - White_2</title><g id="Layer_2" data-name="Layer 2"><g id="Layer_1-2" data-name="Layer 1"><path class="cls-1" d="M1572,1997.36c-53.2.25-72.52-53.84-86.66-93.45-7.84-21.92-16.72-46.8-27.35-56-42.76-37.19-73.24-59.89-135.48-61.74-52.59-1.56-125.78,2.22-203.16,6.23-96.55,5-196.34,10.16-269,5.51-83.28-5.34-233.08-27-372.71-53.87-255-49.08-272.28-73.37-281.57-86.42-27.54-38.65,8-95,78.59-199.78,16.76-24.85,38.36-56.88,48.6-75.7-25.38-22.31-58.67-50.19-93.54-79.4-161-134.92-216.33-185.51-226.08-219C-6,1050.82,4.59,967.13,23.14,833c4.65-33.61,9.13-65.93,12.41-93.14,6.22-51.47,42-128.51,76.59-203.12,20.33-43.8,39.55-85.21,49.62-114.89,7.3-21.52,10.14-48.24,12.89-74.08,4.57-42.88,9.32-87.27,35.74-117.1,21.37-24.13,49.42-23.16,74.07-22.34,42.72,1.47,107.23,3.61,222.08-102.72,47.73-44.2,76.58-63.34,143.39-82.72C720.92,2.3,798.78-12.8,887,15.76c68.15,22.08,115.2,48.08,199.23,98.14,84.82,50.54,277,175.74,336.08,223.16,36.31,29.09,17.67,77.45,1.26,120.08-6.35,16.52-18.19,47.27-16.27,56.6,10,40.5,32,88,65.35,141,46.53,74,126.22,181.11,191.27,241.57,56,52.1,130.72,115.93,211.78,147.5,64.73,25.22,138.45,44.59,202.27,53.15,64.67,8.67,322.45-12.69,436.7-30,18.69-7.81,63.79-70.63,88.12-104.54,46.82-65.23,68.76-94.24,97.87-97.78,160.67-19.49,347.09-38.1,486.44-48.57,72.63-5.45,181,14.45,246.85,45.32,118.63,55.57,343.12,171.24,545.84,281.24,53.71,29.13,16.13,111.59-20.16,191.21l-3.57,7.85c-10.3,22.64-24.27,55.38-39.05,90-86.82,203.48-109.73,247.16-136.4,260-4.75,2.32-8.82,4.61-12.65,6.77-35.5,20-61.81,27.22-149.37,7.74-20.49-4.55-51.35-12.51-87.09-21.72-73.7-19-189.9-49-247.81-55.49.89,13.83,3.07,32.17,4.85,47,6.13,51.31,13.75,115.11,2.52,168.34-15.23,72.17-91.31,107.59-140.45,109.72l-11.84.51c-278.51,12-307.6,13.32-1565.26,42.71-.5,0-1,0-1.5,0M1290.07,1714c12.27-.06,23.9,0,34.81.37,85.65,2.53,132.57,37.48,180.83,79.44,24.75,21.53,37,55.74,47.72,85.93,5.33,14.92,14.06,39.38,20.58,46,1255.73-29.61,1284.8-30.88,1562.67-43l11.82-.52c15.6-.68,63.42-14.65,71.15-51.41,8.79-41.68,1.91-99-3.62-145.07-6.82-56.86-10.93-91.19,7.93-113.6a45.93,45.93,0,0,1,32.37-16.41c49.62-3.14,162.68,24.7,294.84,58.76,35.12,9.06,65.46,16.87,84.76,21.17,69.51,15.45,79.22,10,96.77.13,3.8-2.13,7.75-4.35,12.12-6.59,19.71-25.13,74.68-154.14,104.66-224.5,14.94-35.07,29.06-68.2,39.68-91.62l3.6-7.94c12.37-27.15,36.7-80.6,40.2-104.05-198.74-107.62-416-219.45-531.4-273.51-55.2-25.88-149.52-43.24-210.28-38.68-136.43,10.22-318.4,28.31-476.5,47.33-11.3,10.3-35,43.34-52.72,68-57.08,79.42-94.67,128.06-136.21,134.41-106.74,16.3-379.65,40.79-458.28,30.3-69.28-9.3-149-30.23-218.87-57.43-92.37-36-173.86-105.33-234.58-161.74C1534,875.23,1448.72,753.91,1411,693.91c-38-60.41-62.38-113.47-74.42-162.18-7.7-31,5.87-66.34,19-100.52,4.75-12.33,12.17-31.63,14.15-42.17-59.51-45.69-233.38-159.8-320.9-211.94-81-48.26-123-71.5-184.41-91.4-65.73-21.32-125.32-12.32-194.52,7.72-54,15.62-73.87,28.83-114.16,66.1C418.91,286.07,329.76,283,282.05,281.4c-6.42-.22-14.82-.51-19.07-.06-9.73,13.71-13.16,45.8-16.23,74.28s-6.49,60.67-16.42,89.89C219,478.89,198.93,522,177.74,567.65,147,633.84,112.13,708.79,107.29,748.8c-3.35,27.59-7.9,60.35-12.62,94.41C84.57,915.9,67.8,1036.6,72.58,1062.72,87.86,1090,205.33,1188.43,275.84,1247.5c43.07,36.1,83.74,70.19,111.19,95.18,32.37,29.44,5.7,69-52.67,155.43-22.51,33.35-61.84,91.65-72.81,119.5,76.36,32.41,430.72,98.31,593.36,108.72,68.57,4.37,166.23-.71,260.79-5.62,63.45-3.3,124.12-6.46,174.37-6.71"/><path class="cls-1" d="M925.73,2517.11,995.24,2264h61.46l69.51,253.16H1098.4L1080.11,2452H971.82l-18.29,65.12Zm90.73-229L978,2426.75h95.85l-38.41-138.66Z"/><path class="cls-1" d="M1305.47,2517.11H1166.08V2264h28.17v227.92h111.22Z"/><path class="cls-1" d="M1341.32,2264h91.83q37.66,0,56.52,15.55t18.84,48.84q0,23.77-8.23,37.13t-24.33,21q40.24,13.9,40.24,59.63,0,38.06-20.12,54.51t-58.17,16.46h-96.58Zm90.73,24.87h-62.56v87.44h65.12q23.42,0,34.21-11.16t10.79-33.65q0-22.5-11.52-32.56T1432.05,2288.82Zm2.93,111.95h-65.49v91.46h67.31q24.89,0,37.87-10.42t13-36.77q0-13.9-5.31-23.41a30.82,30.82,0,0,0-14.08-13.54A79.77,79.77,0,0,0,1435,2400.77Z"/><path class="cls-1" d="M1566.68,2517.11V2264h154v24.87H1594.85v87.44h103.9v24.51h-103.9v91.46H1720.7v24.88Z"/><path class="cls-1" d="M1797.16,2420.16v97H1769V2264h93.66q40.23,0,60.54,18.66t20.31,58.17q0,58.53-46.47,73.53l48.66,102.8h-31.1l-45.73-97Zm65.85-24.87q51.59,0,51.58-53.24t-51.94-53.23h-65.49v106.47Z"/><path class="cls-1" d="M1964.35,2289.19V2264h182.92v25.24h-77.19v227.92h-27.8V2289.19Z"/><path class="cls-1" d="M2356.16,2431.87h-64.39v85.24H2263.6V2264h92.56q41.34,0,61.1,20.12t19.75,61.46Q2437,2431.87,2356.16,2431.87ZM2291.77,2407h64q52.3,0,52.31-61.46,0-29.27-12.44-43t-39.87-13.72h-64Z"/><path class="cls-1" d="M2446.89,2517.11,2516.4,2264h61.46l69.51,253.16h-27.8L2601.28,2452H2493l-18.3,65.12Zm90.73-229-38.41,138.66h95.85l-38.42-138.66Z"/><path class="cls-1" d="M2715.42,2420.16v97h-28.17V2264h93.65q40.24,0,60.55,18.66t20.3,58.17q0,58.53-46.46,73.53l48.66,102.8h-31.1l-45.73-97Zm65.85-24.87q51.58,0,51.58-53.24t-51.95-53.23h-65.48v106.47Z"/><path class="cls-1" d="M2940.78,2517.11h-28.17V2264h28.17v117.8l41.7-1.46L3047.24,2264h32.19L3007,2391.26l76.46,125.85h-33.29l-67.32-112-42.07,1.47Z"/></g></g></svg>