<svg xmlns="http://www.w3.org/2000/svg" viewBox="0 0 4255 3007.87"><defs><style>.cls-1{fill:#fff;}</style></defs><title>Imola - White</title><g id="Layer_2" data-name="Layer 2"><g id="Layer_1-2" data-name="Layer 1"><path class="cls-1" d="M112,2305c-29,1-47.8-4-61.14-15.43C26.63,2268.86-1,2240.52,0,2205.24c.4-13,4.3-79.49,43.54-111.56,82.88-67.6,163.05-138.42,240.63-207,51.73-45.67,105.21-92.94,158.89-138.7,7.93-7,16.45-24.55-8.26-88.64l-1.86-4.78c-12.91-33.34-30.63-79.11-20.53-117.52,70.32-267,180.31-534.73,287.34-795.33l30.38-74c12.52-30.57,28.12-68.64,66.58-93.68,29-18.85,67.31-38.41,107.89-59.11,39.75-20.26,80.85-41.22,107.66-59.24,26.44-17.75,36.2-47.27,35.57-59.14-2.1-37.75,13.08-74.71,42.78-104,29.92-29.41,273.86-76.75,276.17-77.08,102.3-14.36,192.33-24.38,355.39-42.51l117.92-13.14c69.65-7.8,217-.82,280.37,10.23,81.31,14.14,190,36.86,285.65,56.83,93.26,19.48,198.6,41.48,217.82,42.12,142.28-.11,256.07-1.35,376.28-2.68,94.77-1,190.87-2.08,302.79-2.57,32.27-.48,79.52-7.83,104.88-16.41,103.62-35,204.84-77.26,302.67-118.14C3814.92,85.59,3922.74,40.55,4034.15,4c34-11.16,104.13.76,127.48,39.38,32,53,61.1,120.69,88.91,206.78,15.82,49.07-11.23,98-68.93,124.85-28.69,13.34-59.58,26.79-92.29,41.06-91.18,39.76-194.62,84.84-238.14,124.15-35.83,32.38-88.39,85.18-144,141-81.14,81.47-173,173.74-251.39,242.1-73.89,64.46-144.3,117.22-247.93,165.33-89.31,41.47-195.09,85.84-288.49,125-24.81,10.43-49,20.53-71.87,30.23-18.69,7.9-39.05,7.12-55.91-2.19-12.87-7.1-28.95-22-35.11-53-153.42-.35-315.4,4.47-472.69,9.14-183.51,5.48-357.41,10.63-508.23,7.59-28.53-.57-56-12.13-80.23-22.35-6.22-2.64-12.39-5.22-18.35-7.52-11.2-4.29-25-5-32.37-4.08-4.09,5.7-8.6,11.94-13.4,18.59-29.61,41-91.18,126.11-94.89,157-1.19,22,28.17,140.09,47.52,217.92,21.51,86.41,41.73,167.77,47,210,6.76,54.1,4.17,136.12-16.8,197.61-17.2,50.41-38.46,94.89-54,127.32-5.91,12.36-11.15,23.3-15.22,32.62-15.75,36.06-49.79,72.66-53.63,76.73-34.19,36.24-96.24,38.53-142.32,34.1-63.08-6.13-112.3-14.21-159.94-22-42.47-7-86.43-14.21-141.47-20.28-40.22-4.45-155.43-7.61-190.56-3-263.1,34.34-466,65.9-701.85,102.53A365,365,0,0,1,112,2305M101,2224.9c6.45.25,19.22-.27,39.64-3.42,236.73-36.62,440.48-68.17,705-102.53,45.82-6,170.06-1.63,211.62,3,57.36,6.39,102.52,13.86,146.13,21.08,48.44,8,94.14,15.57,154.46,21.47,43.4,4.22,67.53-2.74,72.59-8.14,10.76-11.41,30.71-36.12,38.46-53.92,4.38-10,10-21.81,16.32-35.13,15.49-32.44,34.76-72.85,50.44-119,14.19-41.76,19.7-110.29,13-163-4.77-37.58-25.5-120.47-45.64-200.88-37.2-148.63-53.22-217.13-49.7-246.65,5.68-47.71,53-116.48,109.67-195,6.18-8.56,11.88-16.46,16.78-23.38,25.52-38,89.9-34.72,127.76-20.13,6.79,2.63,13.77,5.57,20.85,8.56,17.28,7.31,36.85,15.59,49.2,15.86,149,3.12,322.12-1.88,504.71-7.17,162.81-4.7,330.56-9.56,489.55-8.74,12.57.06,52.76,4.34,62.95,54.42,17.59-7.39,35.77-15,54.37-22.82,92.86-38.93,198-83,286.11-123.89,94.78-44,159.84-92.83,228.41-152.67,76.25-66.55,167.1-157.85,247.35-238.51C3710.09,565.13,3761,513.94,3798.58,480c53.82-48.64,159.32-94.61,261.31-139,32.3-14.06,62.8-27.36,90.63-40.27,1.07-.53,26.7-12.55,23.58-22.18-25.59-78.82-51.82-140.24-80.14-187.56-7.65-5.18-29.53-9.85-37.72-8-107.73,35.41-213.83,79.77-316.55,122.72-99,41.39-201.38,84.21-307.55,120.11C3399,337,3343.08,345.9,3302.08,346.53c-112,.58-207.77,1.71-302.26,2.82-120.39,1.41-234.39,2.77-377.13,3l-.87,0c-24.67-.48-100.63-16-233.1-43.54-94.91-19.72-202.76-42.13-282.62-55.93-56.9-9.86-194-16.28-256.22-9.26l-117.79,13.2c-162,18.13-251.47,28.14-352.42,42.39-29.71,4.18-198.22,43.6-231.65,57.31-7.87,8.75-15.65,21.41-14.82,36.72,2.08,39-19.61,97-72.12,132.25-30.95,20.78-74.26,42.88-116.15,64.24-36.79,18.78-74.84,38.19-100,54.6-15.64,10.17-23.74,27.86-35.21,55.77l-30.44,74C673.09,1031.81,564,1296.63,494.81,1558.13c-3.62,13.72,11.27,52.35,17.63,68.83l1.89,4.91c14.07,36.66,46.94,122.31-14,176.46C446.6,1854.1,393.45,1901,342.05,1946.4,264,2015.31,183.32,2086.55,99.33,2155c-5.13,4.53-13.37,27.23-14.47,51.66,1,2.07,4.56,7.57,16.18,18.21"/><path class="cls-1" d="M1457.61,3002.81V2653.08h38.91v349.73Z"/><path class="cls-1" d="M1581.93,3002.81V2653.08h70.25l99.06,295.66,99-295.66h70.25v349.73h-38.91V2694.52h-7.08L1773,2990.18H1729.5l-101.58-295.66h-7.08v308.29Z"/><path class="cls-1" d="M2268.76,2830.47q0,93.51-29.82,135.45t-108.41,41.95q-78.59,0-108.4-43t-29.82-135.2q0-92.22,30.32-137T2130.28,2648q77.32,0,107.9,44.48T2268.76,2830.47Zm-236.53-1q0,76.83,20.22,110.43t78.08,33.61q57.87,0,77.83-32.85t20-110.18q0-77.32-20.72-112.7T2130,2682.39q-56.87,0-77.33,35.13T2032.23,2829.46Z"/><path class="cls-1" d="M2532.57,3002.81H2340V2653.08h38.92v314.86h153.64Z"/><path class="cls-1" d="M2551.26,3002.81l96-349.73h84.91l96,349.73h-38.41l-25.27-90h-149.6l-25.27,90Zm125.34-316.38L2623.54,2878H2756l-53.07-191.55Z"/></g></g></svg>