<svg xmlns="http://www.w3.org/2000/svg" viewBox="0 0 4414.02 3612.64"><defs><style>.cls-1{fill:#fff;}</style></defs><title>Marina Bay - White_1</title><g id="Layer_2" data-name="Layer 2"><g id="Layer_1-2" data-name="Layer 1"><path class="cls-1" d="M865.75,3612.64V3263.18h70.19l99,295.43,99-295.43h70.2v349.46h-38.89v-308h-7.07L1056.64,3600h-43.43L911.7,3304.59h-7.07v308Z"/><path class="cls-1" d="M1259.14,3612.64l95.95-349.46h84.84l96,349.46H1497.5l-25.25-89.89H1322.77l-25.25,89.89Zm125.24-316.13-53,191.4h132.31l-53-191.4Z"/><path class="cls-1" d="M1629.81,3478.82v133.82h-38.89V3263.18H1720.2q55.54,0,83.58,25.76t28,80.29q0,80.8-64.14,101.51l67.17,141.9h-42.93l-63.12-133.82Zm90.9-34.34q71.2,0,71.2-73.48t-71.71-73.48h-90.39v147Z"/><path class="cls-1" d="M1902,3612.64V3263.18h38.88v349.46Z"/><path class="cls-1" d="M2026.22,3612.64V3263.18h72.72l133.83,315.12h10.6V3263.18h38.38v349.46h-71.2L2074.7,3297.52h-9.59v315.12Z"/><path class="cls-1" d="M2336.8,3612.64l95.94-349.46h84.85l95.95,349.46h-38.39l-25.25-89.89H2400.43l-25.25,89.89ZM2462,3296.51l-53,191.4h132.31l-53-191.4Z"/><path class="cls-1" d="M2779.67,3263.18h126.75q52,0,78,21.47t26,67.41q0,32.83-11.36,51.26t-33.58,29q55.54,19.2,55.55,82.31,0,52.53-27.78,75.25T2913,3612.64H2779.67Zm125.24,34.34h-86.35v120.7h89.88q32.32,0,47.22-15.4t14.9-46.46q0-31.07-15.91-45T2904.91,3297.52Zm4,154.53h-90.39V3578.3h92.92q34.33,0,52.26-14.39t17.93-50.75q0-19.18-7.32-32.32t-19.45-18.69A109.93,109.93,0,0,0,2909,3452.05Z"/><path class="cls-1" d="M3054.9,3612.64l95.95-349.46h84.84l95.95,349.46h-38.38L3268,3522.75H3118.53l-25.25,89.89Zm125.24-316.13-53,191.4h132.31l-53-191.4Z"/><path class="cls-1" d="M3475.06,3612.64h-38.89V3465.69l-111.6-202.51h43.93l86.86,163.62,86.86-163.62h43.94l-111.1,202.51Z"/><path class="cls-1" d="M778.62,2854.48a81,81,0,0,1-35.21-8.37c-25.47-12.12-47.69-44.42-88.88-110.13-8.58-13.67-16.48-26.3-22.87-35.58-27.17-39.5-81-81.57-133.13-122.27-12.71-9.93-25.44-19.88-38-29.88l-11.15-8.88c-41.28-32.88-84-66.88-105.68-100.72-25.3-39.54-43-107.42-41.17-157.91.15-4.36.52-10,.93-16.55.81-12.84,3-46.93.74-66.26-83.22-12.3-184.67-80.64-219.46-117.78-30.91-33-122.78-171.77-67.38-242.33,49.73-63.34,126.28-202.86,207.32-350.6l35.59-64.79c54.81-99.52,108.88-201.67,156.6-291.81,52.65-99.5,98.13-185.41,128.62-237.55C572.21,847.37,655.1,748.18,729,748.18c.57,0,1.15,0,1.73,0,61.93,1.23,121,54.65,168.4,97.56C942,884.48,1005,952.09,1055.57,1006.39c26.09,28,48.61,52.16,64,67.73,3.67,3.7,8.59,9.41,14.25,16,3.83,4.46,10.38,12.15,16.74,19,10-16.18,22.39-40.84,30.13-56.27,9.56-19,18.58-37,27.21-50.24,11.82-18,25.79-40.16,41.29-64.59,50.27-79.31,112.82-178,170.88-252.34,4.65-6,9.72-14.43,15.09-23.42,16.89-28.23,40-66.92,83.4-71.93,39.52-4.42,80.67,21.64,120.44,46.92,8.89,5.66,17.53,11.19,25.64,15.92C1704,676.23,1760.56,711.77,1826,753c78.68,49.48,167.86,105.56,241.56,148.63,29.94,17.5,61.21,36.26,93,55.31,107.66,64.6,219,131.38,301.69,163,58,22.2,122.64,25.08,191,28.14,21.52,1,43,1.93,64.18,3.49,199.13,14.66,764.28,49.48,949.44,55.24,46.49,1.47,100.84-6.06,129-17.85,22.38-9.37,37.63-26.2,38.11-31.86-1.16-26.88-4.08-60.72-7.48-99.9-3.31-38.4-7.07-81.89-9.62-125.57-4.47-76.08-31.26-147.55-41.36-174.45-9.94-26.55-17.42-47-23.68-64.09-18.49-50.58-26.15-71.51-57.19-139.28-39.59-86.51-62-156.48-51.62-238l5.38-42.27c8.93-70.6,19.08-150.61,25.58-193.49,6.74-44.52,49.43-77.38,103.8-79.9h0c28.59-1.38,81.87,9.14,120.52,93.44,9.71,21.18,34.24,44,65.57,61.06,18.34,10,99.5,14.82,157.33,6.1a55.72,55.72,0,0,1,43.23,11.68c30.75,24.19,38.39,77.57,45.17,144.83.88,8.62,1.54,15.71,2.26,20.07,28.11,172.28,88.23,620.65,136.54,980.92,27.31,203.72,50.88,379.66,63.73,469,4.73,32.84.83,87.46-13.69,118.39-15.54,33.08-58.46,97.54-90.49,142.71-78.15,110.12-92.94,114.79-115.57,114-157.6-4.57-465.33-24.45-649.17-36.33-42-2.69-78.08-5-105.37-6.74-125.89-7.81-191.55-77.5-195.2-207.17-.31-11.58-3.8-29.93-7.29-43.61-33.3-2-78.12-4.61-125.18-7.32-85.48-5-178.3-10.37-222.51-13.22-2,4.88-4.15,11.59-5.62,16.23-1.56,4.84-3.06,9.49-4.62,13.75-4.77,13.07-11.49,44.16-18,74.2-23.3,107.94-35.59,167.86-87.36,165.48-30.27-1.18-65-2.4-102.36-3.72-148.26-5.21-332.74-11.73-444.19-21.4-48.33-4.2-97.28-34.78-124.73-77.91-31.11-48.93-33.31-108.1-31.84-139,.41-8.81,1.55-18.66,2.8-29,2.18-18,5.74-47.46-.83-56.36-10.35-3.87-41.81-2.81-59-2.23-12.39.44-24.4.83-35.33.6-53.77-1.18-106.82-4.19-164.62-28-79.17-32.56-234.39-164.15-384.49-291.42-71-60.23-138.16-117.14-181.53-149.46-4.75-3.54-9.88-8-15.19-12.57-.85-.74-1.82-1.56-2.82-2.42-7.33,15.61-15.69,38-21,52.11-2.87,7.7-5.63,15.1-8.26,21.84l-11.58,29.53c-31.67,80.67-84.66,215.7-115.21,320.39-7.12,24.38-15.12,49.18-23.3,74.49-13.37,41.47-27.24,84.35-37.94,128.42-11.35,46.68-20,96.68-28.45,145-5.29,30.43-10.56,60.69-16.45,90.22-19,95.41-35.38,201-49.83,294.22-7.85,50.57-15.25,98.31-21.78,135.46-2.94,16.77-5.83,38.73-8.87,62-8.45,64.42-14.85,108.54-26.17,133.5-13.64,30-32.17,49.55-55.12,58a72.9,72.9,0,0,1-25.39,4.55M86.28,1890.75c-4.39,21.45,31.37,97.31,61.17,129.1,28.51,30.42,123.78,90.36,179.18,92.38a58.63,58.63,0,0,1,41.88,19.93c25.91,29,24.94,79.52,21.23,137.67-.35,5.57-.68,10.42-.82,14.13-1.29,35.89,13.37,85.19,27.31,107,13.89,21.65,54.19,53.74,86.59,79.52l11.32,9c12.25,9.79,24.71,19.53,37.16,29.25,57.27,44.73,116.48,91,151.26,141.56,7,10.12,15.57,23.82,24.89,38.69,13.21,21,36.06,57.48,49.57,73.33,1.06-1.82,2.25-4.13,3.58-7,6.74-14.87,14.14-71.2,19-108.47,3.19-24.22,6.2-47.12,9.45-65.75,6.38-36.29,13.71-83.62,21.49-133.73,14.59-94.07,31.13-200.71,50.52-298,5.74-28.83,10.87-58.39,16-88.08,8.64-49.8,17.58-101.28,29.65-150.83,11.49-47.22,25.84-91.69,39.72-134.69,7.91-24.48,15.67-48.5,22.55-72.09,31.65-108.51,85.58-245.86,117.8-327.94l11.5-29.35c2.48-6.38,5.09-13.35,7.79-20.6,20-53.72,35-90.22,59.95-107.44,42-29,81.79,5.64,100.94,22.26,3.54,3.1,6.93,6.1,10.11,8.48,45.56,33.95,113.68,91.69,185.8,152.84,131.4,111.41,294.91,250,361.51,277.44,44.27,18.21,86.86,20.54,134,21.58,9.42.19,19.86-.18,30.55-.58,44.28-1.54,90-3.1,119.35,24,40.7,37.73,33.81,94.86,29.26,132.69-1,8.08-2,15.75-2.28,22.6-1.62,34.26,5.17,66.91,18.18,87.35,12.85,20.19,37.84,36.22,59.45,38.09,109.24,9.49,292.55,16,439.82,21.16,28.05,1,54.65,1.91,79,2.82,7.83-24.19,17.52-69.1,23.28-95.81,7.8-36,14.5-67.1,21.4-85.91,1.14-3.17,2.25-6.64,3.39-10.23,7.74-24.29,25.75-81.27,84.83-77.26,39.48,2.63,139.18,8.43,230.48,13.73,60.67,3.52,117.64,6.85,150.9,8.88,57.9,3.37,62.67,114.38,63,127,1.64,58.36,11.81,115.88,114.12,122.24,27.34,1.7,63.5,4.05,105.54,6.76C3726,2050,4018.73,2068.93,4179,2074.27c31.6-35.22,120.84-162.54,141.38-206.28,4.61-9.84,9.43-45.76,6.22-68.13-12.91-89.78-36.53-265.93-63.87-469.86-48.23-359.71-108.26-807.4-136.15-978.4-.9-5.55-1.87-14.53-3-25.48-1.5-14.92-5.5-54.35-11.36-76.19-55.64,5.24-147.2,4.78-189.3-18.15-28.14-15.31-79-48.83-103.06-101.3-12.2-26.59-27.15-42.58-38.21-42.9-12.55.6-20.28,5.2-22.58,7.48-6.36,42.33-16.69,123.88-25,189.58L3728.72,327c-7.78,60.92,10.35,115.77,44.3,189.93,32.5,70.94,41.07,94.37,59.84,145.69,6.19,17,13.6,37.19,23.42,63.46,11.38,30.32,41.59,110.89,46.83,200.34,2.5,42.47,6.19,85.31,9.47,123.13,3.47,40.2,6.46,74.93,7.73,103.85,2.26,53-44.29,96.72-91.46,116.49-45.37,19-115.43,25.91-164.66,24.45-186.12-5.8-753.31-40.72-953-55.43-20.43-1.51-41.05-2.42-61.71-3.35-72.18-3.22-146.8-6.55-217.76-33.7-89.71-34.33-204.34-103.09-315.19-169.6-31.49-18.86-62.47-37.46-92.13-54.78-74.91-43.79-164.72-100.28-244-150.11-62.1-39.08-120.79-76-159-98.33-9-5.22-18.54-11.31-28.4-17.58-17.64-11.23-49.73-31.64-63.28-33.84-5.7,5-15,20.51-20.7,30.09-6.5,10.86-13.23,22.08-21.21,32.33-55.42,70.92-116.69,167.64-165.92,245.33-15.75,24.82-30,47.26-42,65.62-5.91,9-13.85,24.85-22.25,41.59-27.74,55.3-48.17,92.75-77.78,108.81-44.77,24.26-84.94-22.81-111.49-53.93-4-4.69-7.41-8.78-10-11.39-16.27-16.46-39.19-41-65.72-69.53-49.49-53.09-111.09-119.17-151.16-155.41-30.9-28-82.62-74.76-112.61-75.37-18.41.4-79.28,50.9-109.07,101.92C590.35,988.24,545.25,1073.4,493.07,1172c-47.88,90.42-102.14,192.91-157.28,293.08l-35.54,64.69c-85.73,156.32-159.88,291.48-214,361m237.2,309h0ZM3260.68,1870l.24,0-.24,0"/></g></g></svg>