<svg xmlns="http://www.w3.org/2000/svg" viewBox="0 0 4461.65 3425.31"><defs><style>.cls-1{fill:#fff;}.cls-2{font-size:12px;font-family:TitilliumWeb-Regular, Titillium Web;letter-spacing:-0.01em;}.cls-3{letter-spacing:0em;}.cls-4{letter-spacing:-0.01em;}</style></defs><title>Miami - White_1</title><g id="Layer_2" data-name="Layer 2"><g id="Layer_1-2" data-name="Layer 1"><path class="cls-1" d="M1574.84,2541.32V2191.86H1645l99,295.43,99-295.43h70.19v349.46H1874.3V2233.27h-7.06L1765.73,2528.7H1722.3l-101.51-295.43h-7.07v308.05Z"/><path class="cls-1" d="M1999,2541.32V2191.86h38.88v349.46Z"/><path class="cls-1" d="M2092.46,2541.32l95.95-349.46h84.84l95.95,349.46h-38.38l-25.25-89.89H2156.09l-25.25,89.89Zm125.24-316.13-53,191.4H2297l-53-191.4Z"/><path class="cls-1" d="M2424.24,2541.32V2191.86h70.19l99,295.43,99-295.43h70.2v349.46H2723.7V2233.27h-7.07l-101.5,295.43H2571.7l-101.51-295.43h-7.07v308.05Z"/><path class="cls-1" d="M2848.44,2541.32V2191.86h38.88v349.46Z"/><path class="cls-1" d="M2365.81,1783.16c-127.6,0-218.72-30.18-273.78-48.38-8-2.66-15.27-5.08-21.91-7.14-43.75-13.62-131.3-55-201.66-88.19-19.72-9.3-37.66-17.78-52.14-24.45-49.15-22.64-130.63-49.78-241.84-48.82-14,0-95.43,1.57-198.58,3.56-209,4-525.07,10-597.05,9.28-88.62-.73-244.24-41.46-299.41-63.41-47.72-19-83.73-30.24-180.38-27.12-31.34,1-43.72,4.18-56.81,7.52-19.91,5.09-40.42,10.4-103.34,9.19C65.51,1504.28,0,1404.5,0,1326.51c0-96.74,33.13-137.4,68.2-180.43,105.31-130,286.53-131.5,322-130.45,109,2.59,172.05,63.63,188.79,82.26,60.59,67.5,93.95,91.29,111.25,99.36,34,15.79,83,21.65,131.08,15.65,34.67-4.33,77.85-37.72,106.42-59.82l8.45-6.52c39.4-30.33,63.16-48.62,139.82-66.52,72.15-17.43,168.23-3,233.43,35.29,53.14,31.54,602.22,356.25,602.22,356.25.8.48,99.26,57.13,195.54,60,17.12.47,32.74,1.13,47.32,1.75,81.26,3.45,126,5.35,238.41-35.06,130.2-47.13,166-116.57,175.37-144.24,11-32.85,12.12-79.29,13.54-138.08l.49-19.48c2.15-82.27,23.72-112.46,44.56-141.65,19.44-27.84,55.23-49.61,86.8-68.82,7.56-4.6,14.67-8.9,20.73-12.89,23.49-15.09,40.08-42.93,40.87-54.8-1.16-7.94-23-39-80.3-73.3-62.21-36.84-445.67-270.56-449.52-272.91l-.08,0c-4.3-2.62-430.1-263.46-495.08-302-71.1-42.19-138.41-68.8-200.07-79.05-45.63-7.36-177.38-11-246.65,5.32C1232,213.18,1155,247.52,1080.86,295.64c-42.22,27.39-94.7,56.23-184.36,51.75-83.47-4.22-111.81-15.28-180.14-57-82.21-50.22-182.72-122.19-194.79-179.91-5.05-24.36,2.25-52.16,19.07-72.62,15.63-19,46.37-41,103.87-37.47,241.35,14.51,2237.14,95,2377.41,97.5,70.78,1.89,385.9,13.93,690.67,25.58,314.93,12,640.57,24.47,664.57,24.47,30.24,0,48.09,14.18,57.72,26.08,15.53,19.17,21.6,47.58,16.61,78-5.21,29.84-31.06,139.5-44.56,180.35-6.13,18.5-3,20.89,9.82,27.11,15.05,7.3,35.88,19.89,42.79,44.92,7.53,27.25-7.18,50.85-12,58.62-2.41,3.94-8.64,16-15.2,28.82-12.07,23.46-28.58,55.61-43.75,80.57-33.71,55.44-96.22,72.67-121.52,77.51-21.83,4.17-66.85,4.36-128.12,4.17-21.07-.06-41-.12-52.09.26-38.84,1.33-68.11,40.4-68.11,90.88,0,29.18,13,54.82,39.83,78.39,27,23.9,42.3,31.27,65.45,42.41l4.9,2.38c1,.48,100.67,49.58,96.83,119-2.8,50.88-35.58,73.41-70.26,97.25l-2.87,2c-58,40.06-328.71,178.51-461.48,238.6-95,43-361.34,140.09-555.82,211-79.84,29.1-148.8,54.25-191.3,70.29-180.72,68.23-504.45,75.82-567.52,76.65-3.59,0-7.16.07-10.7.07m-787-290.72c120.88,0,211.36,29.89,266.21,55.16,14.62,6.74,32.77,15.3,52.7,24.71,64.81,30.6,153.57,72.52,192.71,84.7,7,2.18,14.68,4.71,23.09,7.5,55.9,18.5,140.29,46.5,262.14,44.86,168.69-2.21,412.45-22.46,544.27-72.24,42.88-16.17,112-41.38,192.06-70.57,193.44-70.52,458.35-167.11,551-209,139-62.91,400.11-197.6,450.62-232.45l2.94-2c33.21-22.83,37.9-27.69,38.58-40-1.86-9.43-29.38-35-56-47.9l-4.8-2.31c-25.3-12.21-47.14-22.74-81.44-53.06-43-37.85-64.87-83.18-64.87-134.65,0-89.64,60-161.92,136.52-164.55,12.33-.42,32-.36,54.68-.31,39,.11,98,.31,115.12-3,12.6-2.4,55.21-12.72,74.48-44.43,13.79-22.68,29.6-53.46,41.16-75.93,7.06-13.77,12.44-24.22,16.36-31-46.59-22.87-63.46-65.71-46.31-117.65,12.39-37.45,37.08-142.13,41.79-169.17,1.41-8.51.23-15.2-.83-17.33-.3.06-1.57-.17-3.78-.17-25.3,0-337.07-11.92-667.18-24.54-304.57-11.63-619.5-23.67-689.58-25.55C2880.29,169.12,882,88.49,640.41,74c-21.19-1.32-37.89,2.77-45.43,11.17-4.55,5-4.19,9.85-4.18,9.89,4.08,16.12,56.9,67.94,161.37,131.76,59,36,76.7,43.39,147.76,47,69.34,3.51,107.41-17.24,143.5-40.66,80.81-52.44,165.33-90,244.47-108.64,76.09-18,214.88-15.68,273.3-6.26,70.25,11.68,145.6,41.23,224.13,87.84,65.12,38.67,488.39,297.93,495.83,302.49,3.88,2.35,386.94,235.84,448.89,272.53,36.31,21.71,120,78.85,115.81,142.36-2.93,43.94-40.34,90.64-74,112.3-6.39,4.19-14.16,8.92-22.48,14-23,14-54.54,33.17-65.48,48.84-18.35,25.69-29.29,41-30.84,100l-.48,19.34c-1.58,65.21-2.83,116.73-17.51,160.56-15.87,47-65.38,133.94-219,189.55-125.14,45-180.6,42.6-264.47,39.06-14.28-.61-29.57-1.26-46.39-1.73-114.11-3.43-223.78-66.83-228.39-69.52-.15-.09-549.31-324.85-602.31-356.3-43-25.21-119.65-42.81-182.78-27.57-62.35,14.55-77.31,26.07-113.49,53.93l-8.34,6.43c-36.65,28.34-86.85,67.15-140.18,73.82-28.9,3.62-103.2,8.76-168.4-21.54-34.34-16-78.18-54.06-134.07-116.31-24.68-27.46-74.1-57.38-138.9-58.93-18.32-.59-179.86-2.08-266.1,104.37-31,38-51.45,63.14-51.45,132.83,0,45.94,42.89,104.65,69.19,105,53.85,1,69.18-2.91,85.39-7.06,15.33-3.9,32.7-8.34,71.48-9.61,100.21-3.24,146.88,7.7,207.86,31.93C555.48,1467,703,1504.68,779.53,1505.3c71,.9,386.5-5.25,595.05-9.26,107.58-2.08,185.29-3.58,199.71-3.58,1.48,0,3,0,4.48,0"/><text class="cls-2" transform="translate(2785.02 3421.89)">L<tspan class="cls-3" x="5.69" y="0">o</tspan><tspan class="cls-4" x="12.02" y="0">r</tspan><tspan class="cls-3" x="16.06" y="0">em ipsum</tspan></text></g></g></svg>