<svg width="169" height="64" viewBox="0 0 169 64" fill="none" xmlns="http://www.w3.org/2000/svg">
<g filter="url(#filter0_dd_1_378)">
<path d="M45.4294 26.7081L50.979 24.6303C51.6185 24.3882 52.3342 24.4694 52.9022 24.8458L52.9569 24.8833L53.0103 24.9226C53.5558 25.3352 53.8701 25.9868 53.8511 26.6733C53.851 26.678 53.851 26.6829 53.8508 26.6876C53.7832 28.3362 53.2222 31.1647 51.83 33.5935C50.5572 35.8141 48.4464 37.6117 45.4294 38.5196C45.6751 39.5257 46.4641 40.6897 47.427 41.1374C48.9466 41.5471 50.5701 41.2959 51.8952 40.4424L51.9292 40.4212C52.6102 40.0176 53.4636 40.0459 54.1165 40.4936C54.7693 40.9413 55.103 41.7272 54.9718 42.5078L54.9716 42.5089C54.2168 46.9744 51.1016 50.154 47.427 52.2476C44.5276 53.8996 38.1607 54.9394 35.9176 55.0291C33.6745 55.1188 29.3769 54.323 27.0348 53.3243C24.949 51.4548 22.2793 51.7849 18.4212 49.7353C15.5499 48.21 14.9219 44.8901 14.9219 43.2751C14.9219 41.66 15.4602 40.3141 16.4472 38.4299C16.897 37.1824 14.6527 36.2765 12.4706 34.8633C12.4467 34.8364 12.4242 34.8083 12.4031 34.7792C10.8277 32.5994 9.74127 29.9257 9.21823 27.2875C9.21754 27.284 9.21679 27.2805 9.21613 27.277C9.067 26.4836 9.02091 25.6742 9.66476 25.1872L9.72574 25.1427C10.3419 24.7099 11.1417 24.6353 11.8273 24.9466L11.8954 24.979L11.934 24.9991L14.5639 26.4421V24.4328C14.5639 15.9095 21.4734 9.00001 29.9966 9C38.5199 9 45.4294 15.9095 45.4294 24.4328V26.7081Z" fill="white"/>
<path d="M29.9965 7.11621C39.4131 7.11621 47.0743 14.6319 47.3081 23.9922L50.3188 22.8652C51.4488 22.4399 52.7042 22.5489 53.7387 23.1484L53.9428 23.2754L53.9682 23.292L54.0229 23.3291L54.0727 23.3643L54.1254 23.4043L54.1469 23.4199C55.1769 24.199 55.7704 25.4289 55.7348 26.7246C55.7348 26.7274 55.7349 26.7308 55.7348 26.7344L55.7338 26.7646C55.6562 28.6577 55.0333 31.7929 53.4643 34.5303C52.3103 36.5436 50.5824 38.2407 48.2924 39.3984C49.1857 39.5421 50.106 39.3532 50.8745 38.8584L50.8979 38.8438L50.9321 38.8223L50.9682 38.7998C52.2801 38.0223 53.9245 38.077 55.1821 38.9395C56.4388 39.8014 57.0806 41.3137 56.8295 42.8164L56.8305 42.8174V42.8184L56.8295 42.8232C55.9465 48.046 52.3171 51.6301 48.3598 53.8848C46.641 54.8641 44.0796 55.5833 41.8198 56.0664C39.5227 56.5574 37.2572 56.8615 35.9926 56.9121C34.665 56.9652 32.8702 56.7605 31.1626 56.4365C29.4472 56.1111 27.6402 55.6311 26.2954 55.0576C26.1057 54.9767 25.9303 54.8652 25.7768 54.7275C25.088 54.1102 24.2872 53.8167 22.8696 53.4072C21.4871 53.0079 19.6668 52.5305 17.5376 51.3994C13.7283 49.3757 13.0376 45.1241 13.0376 43.2754C13.0376 41.4476 13.5894 39.9297 14.4057 38.2832C14.3867 38.2691 14.3673 38.2535 14.3461 38.2383C14.034 38.0138 13.6317 37.7687 13.1137 37.4609C12.619 37.167 12.0304 36.8233 11.4467 36.4453C11.3042 36.353 11.1747 36.2412 11.062 36.1143C10.9964 36.0404 10.9344 35.963 10.8764 35.8828C9.12315 33.457 7.93869 30.5247 7.36958 27.6543L7.37056 27.6533L7.3647 27.625C7.23171 26.9175 6.87588 24.9343 8.52779 23.6846L8.55415 23.665L8.6147 23.6211L8.64302 23.6006C9.80521 22.7845 11.3129 22.6437 12.6059 23.2305C12.616 23.2351 12.6262 23.2403 12.6362 23.2451L12.7045 23.2773C12.7091 23.2795 12.7137 23.282 12.7182 23.2842C13.3094 14.2558 20.8187 7.11628 29.9965 7.11621Z" stroke="white" stroke-width="3.76846" stroke-linecap="round" stroke-linejoin="round"/>
</g>
<path d="M31.0126 23.4528V29.1952" stroke="black" stroke-width="2.15341" stroke-linecap="round" stroke-linejoin="round"/>
<path d="M22.399 23.4528V29.1952" stroke="black" stroke-width="2.15341" stroke-linecap="round" stroke-linejoin="round"/>
<path d="M16.5609 19.4982C17.4641 21.9267 19.8086 23.5149 22.399 23.4528C23.9542 23.5354 25.4859 23.0466 26.7058 22.0784C27.9257 23.0466 29.4574 23.5354 31.0126 23.4528C32.6472 23.5012 34.2311 22.8825 35.4001 21.7391C36.5692 20.5957 37.2228 19.0259 37.2106 17.3907" stroke="black" stroke-width="2.15341" stroke-linecap="round" stroke-linejoin="round"/>
<path d="M20.4848 33.0235H37.7121" stroke="black" stroke-width="2.15341" stroke-linecap="round" stroke-linejoin="round"/>
<path d="M35.798 33.0235C32.0521 35.1193 29.406 38.7439 28.551 42.9502C28.4995 43.2316 28.4669 43.5162 28.4534 43.802C28.295 47.1564 25.5294 49.7948 22.1712 49.7952C20.2624 49.7951 18.4602 48.9155 17.2857 47.4108C16.1112 45.9062 15.6955 43.9443 16.1589 42.0927C17.1965 38.2426 19.742 34.9733 23.2201 33.0235" stroke="black" stroke-width="2.15341" stroke-linecap="round" stroke-linejoin="round"/>
<path d="M29.4182 33.0235C25.6723 35.1193 23.0262 38.7439 22.1712 42.9502" stroke="black" stroke-width="2.15341" stroke-linecap="round" stroke-linejoin="round"/>
<path d="M27.6533 52.5094C29.9551 53.5472 32.4518 54.0823 34.9768 54.079C43.9733 54.079 52.5869 50.3024 53.9689 42.1271C54.0306 41.7597 53.8736 41.3899 53.5664 41.1792C53.2592 40.9685 52.8576 40.9552 52.5371 41.1452C50.9305 42.1799 48.9564 42.4735 47.1182 41.951C45.4751 41.2283 44.4136 39.6038 44.4116 37.8088C50.7531 36.5302 52.7113 29.6086 52.8338 26.6207C52.8435 26.2716 52.6782 25.9409 52.3933 25.739C52.1084 25.5372 51.7415 25.4909 51.4154 25.6157L44.4116 28.2381V24.4098C44.4116 16.4812 37.9842 10.0538 30.0555 10.0538C22.1269 10.0538 15.6995 16.4812 15.6995 24.4098V28.2381L11.475 25.9201C11.118 25.7425 10.6912 25.7824 10.3731 26.0229C10.0551 26.2635 9.90064 26.6633 9.97431 27.0552C10.4672 29.5414 11.491 31.8919 12.9757 33.9461" stroke="black" stroke-width="2.15341" stroke-linecap="round" stroke-linejoin="round"/>
<path d="M73.499 27.518V12.9726H81.9152V14.1658H74.8271V19.6416H81.2547V20.8348H74.8271V27.518H73.499ZM96.7425 20.2453C96.7425 21.7605 96.4726 23.0791 95.9328 24.2013C95.393 25.3187 94.6497 26.1852 93.7027 26.8007C92.7605 27.4115 91.6762 27.7169 90.4499 27.7169C89.2235 27.7169 88.1369 27.4115 87.1899 26.8007C86.2477 26.1852 85.5067 25.3187 84.9669 24.2013C84.4319 23.0791 84.1643 21.7605 84.1643 20.2453C84.1643 18.7302 84.4319 17.4139 84.9669 16.2964C85.5067 15.1743 86.25 14.3078 87.197 13.697C88.144 13.0815 89.2283 12.7737 90.4499 12.7737C91.6762 12.7737 92.7605 13.0815 93.7027 13.697C94.6497 14.3078 95.393 15.1743 95.9328 16.2964C96.4726 17.4139 96.7425 18.7302 96.7425 20.2453ZM95.4499 20.2453C95.4499 18.9432 95.2321 17.8282 94.7964 16.9001C94.3608 15.9674 93.7666 15.2548 93.0138 14.7624C92.2609 14.2699 91.4063 14.0237 90.4499 14.0237C89.4982 14.0237 88.6459 14.2699 87.893 14.7624C87.1402 15.2548 86.5436 15.965 86.1033 16.893C85.6677 17.8211 85.4499 18.9385 85.4499 20.2453C85.4499 21.5474 85.6677 22.6624 86.1033 23.5905C86.5389 24.5185 87.1331 25.2311 87.8859 25.7283C88.6388 26.2207 89.4934 26.4669 90.4499 26.4669C91.4063 26.4669 92.2609 26.2207 93.0138 25.7283C93.7714 25.2358 94.3679 24.5256 94.8036 23.5976C95.2392 22.6648 95.4546 21.5474 95.4499 20.2453ZM99.5545 27.518V12.9726H104.249C105.281 12.9726 106.143 13.1596 106.834 13.5337C107.53 13.903 108.054 14.4167 108.404 15.0749C108.759 15.7283 108.937 16.4787 108.937 17.3263C108.937 18.1738 108.759 18.9219 108.404 19.5706C108.054 20.2193 107.533 20.7259 106.841 21.0905C106.15 21.4551 105.293 21.6374 104.27 21.6374H100.272V20.4229H104.235C104.992 20.4229 105.622 20.2974 106.124 20.0464C106.631 19.7955 107.007 19.438 107.253 18.974C107.504 18.51 107.63 17.9607 107.63 17.3263C107.63 16.6918 107.504 16.1378 107.253 15.6643C107.002 15.1861 106.624 14.8168 106.117 14.5564C105.615 14.296 104.981 14.1658 104.214 14.1658H100.883V27.518H99.5545ZM105.968 20.9555L109.547 27.518H108.013L104.469 20.9555H105.968ZM111.772 12.9726H113.306L118.583 25.643H118.711L123.988 12.9726H125.522V27.518H124.272V15.778H124.158L119.25 27.518H118.043L113.135 15.778H113.022V27.518H111.772V12.9726ZM138.683 12.9726H140.012V22.6033C140.012 23.5928 139.78 24.4783 139.316 25.2595C138.852 26.036 138.205 26.6492 137.377 27.099C136.553 27.5441 135.594 27.7666 134.5 27.7666C133.411 27.7666 132.452 27.5417 131.624 27.0919C130.795 26.6421 130.149 26.0289 129.685 25.2524C129.221 24.4759 128.989 23.5928 128.989 22.6033V12.9726H130.317V22.5109C130.317 23.2827 130.49 23.9716 130.835 24.5777C131.181 25.179 131.666 25.6525 132.291 25.9981C132.921 26.3438 133.657 26.5166 134.5 26.5166C135.343 26.5166 136.079 26.3438 136.709 25.9981C137.339 25.6525 137.824 25.179 138.165 24.5777C138.511 23.9716 138.683 23.2827 138.683 22.5109V12.9726ZM143.472 27.518V12.9726H144.8V26.3249H151.732V27.518H143.472ZM155.261 27.518H153.869L159.16 12.9726H160.581L165.872 27.518H164.48L159.92 14.6984H159.821L155.261 27.518ZM156.262 21.9427H163.478V23.1359H156.262V21.9427ZM83.4728 37.3632C83.3897 37.0244 83.2586 36.7272 83.0796 36.4715C82.9007 36.2094 82.6769 35.9889 82.4085 35.8099C82.1464 35.6246 81.8396 35.4871 81.488 35.3976C81.1429 35.3018 80.7625 35.2538 80.347 35.2538C79.4522 35.2538 78.6883 35.468 78.0555 35.8962C77.4291 36.3245 76.9497 36.9413 76.6173 37.7467C76.2913 38.5521 76.1283 39.5237 76.1283 40.6615C76.1283 41.8121 76.2849 42.7964 76.5981 43.6146C76.9113 44.4328 77.3779 45.0592 77.998 45.4939C78.618 45.9285 79.3882 46.1459 80.3087 46.1459C81.1205 46.1459 81.7948 46.0276 82.3318 45.7911C82.8751 45.5546 83.281 45.219 83.5495 44.7844C83.8179 44.3497 83.9522 43.8383 83.9522 43.2503L84.8726 43.3462H80.3854V39.5493H89.0914V42.2723C89.0914 44.0621 88.711 45.593 87.9504 46.865C87.1961 48.1306 86.1542 49.1022 84.8247 49.7798C83.5015 50.4509 81.9834 50.7865 80.2703 50.7865C78.3591 50.7865 76.6812 50.3806 75.2366 49.5688C73.792 48.757 72.6638 47.6001 71.852 46.0979C71.0466 44.5958 70.6439 42.8092 70.6439 40.7382C70.6439 39.1146 70.89 37.6764 71.3822 36.4236C71.8808 35.1707 72.5711 34.1128 73.4532 33.2499C74.3353 32.3806 75.3549 31.7254 76.5118 31.2844C77.6688 30.8369 78.9088 30.6132 80.232 30.6132C81.3953 30.6132 82.4756 30.7794 83.4728 31.1118C84.4763 31.4378 85.3616 31.9044 86.1287 32.5116C86.9021 33.1125 87.5253 33.8252 87.9983 34.6498C88.4713 35.4744 88.759 36.3788 88.8613 37.3632H83.4728ZM91.0371 50.518V30.8817H99.5129C100.97 30.8817 102.246 31.1469 103.339 31.6775C104.432 32.208 105.282 32.9719 105.889 33.969C106.496 34.9662 106.8 36.1615 106.8 37.555C106.8 38.9612 106.487 40.1469 105.86 41.1121C105.24 42.0773 104.368 42.806 103.243 43.2982C102.124 43.7904 100.817 44.0365 99.3212 44.0365H94.2587V39.8945H98.2473C98.8737 39.8945 99.4075 39.8177 99.8485 39.6643C100.296 39.5045 100.638 39.2521 100.874 38.9069C101.117 38.5617 101.239 38.1111 101.239 37.555C101.239 36.9925 101.117 36.5354 100.874 36.1839C100.638 35.8259 100.296 35.5638 99.8485 35.3976C99.4075 35.2251 98.8737 35.1388 98.2473 35.1388H96.368V50.518H91.0371ZM102.543 41.5052L107.452 50.518H101.661L96.8666 41.5052H102.543ZM120.153 30.8817H125.484V43.4612C125.484 44.957 125.126 46.2513 124.41 47.3444C123.701 48.431 122.71 49.2716 121.438 49.866C120.166 50.4541 118.689 50.7481 117.008 50.7481C115.314 50.7481 113.831 50.4541 112.559 49.866C111.287 49.2716 110.296 48.431 109.587 47.3444C108.884 46.2513 108.532 44.957 108.532 43.4612V30.8817H113.863V43.001C113.863 43.6082 113.997 44.1516 114.266 44.631C114.534 45.104 114.905 45.4747 115.378 45.7432C115.858 46.0116 116.401 46.1459 117.008 46.1459C117.622 46.1459 118.165 46.0116 118.638 45.7432C119.111 45.4747 119.482 45.104 119.75 44.631C120.019 44.1516 120.153 43.6082 120.153 43.001V30.8817ZM127.478 30.8817H134.113L138.676 42.0038H138.907L143.47 30.8817H150.105V50.518H144.89V39.1658H144.736L140.364 50.3646H137.219L132.847 39.0891H132.693V50.518H127.478V30.8817ZM152.092 50.518V30.8817H160.568C162.025 30.8817 163.3 31.1693 164.393 31.7446C165.486 32.3199 166.337 33.1285 166.944 34.1704C167.551 35.2123 167.855 36.43 167.855 37.8234C167.855 39.2297 167.541 40.4474 166.915 41.4765C166.295 42.5056 165.422 43.2982 164.297 43.8543C163.179 44.4104 161.872 44.6885 160.376 44.6885H155.313V40.5464H159.302C159.929 40.5464 160.462 40.4378 160.903 40.2204C161.351 39.9967 161.693 39.6803 161.929 39.2712C162.172 38.8621 162.294 38.3795 162.294 37.8234C162.294 37.2609 162.172 36.7815 161.929 36.3852C161.693 35.9825 161.351 35.6757 160.903 35.4648C160.462 35.2474 159.929 35.1388 159.302 35.1388H157.423V50.518H152.092Z" fill="white"/>
<defs>
<filter id="filter0_dd_1_378" x="0.508735" y="0.565821" width="63.105" height="63.2631" filterUnits="userSpaceOnUse" color-interpolation-filters="sRGB">
<feFlood flood-opacity="0" result="BackgroundImageFix"/>
<feColorMatrix in="SourceAlpha" type="matrix" values="0 0 0 0 0 0 0 0 0 0 0 0 0 0 0 0 0 0 127 0" result="hardAlpha"/>
<feOffset dy="0.179451"/>
<feGaussianBlur stdDeviation="2.42258"/>
<feComposite in2="hardAlpha" operator="out"/>
<feColorMatrix type="matrix" values="0 0 0 0 0 0 0 0 0 0 0 0 0 0 0 0 0 0 0.25 0"/>
<feBlend mode="normal" in2="BackgroundImageFix" result="effect1_dropShadow_1_378"/>
<feColorMatrix in="SourceAlpha" type="matrix" values="0 0 0 0 0 0 0 0 0 0 0 0 0 0 0 0 0 0 127 0" result="hardAlpha"/>
<feOffset dy="1.4356"/>
<feGaussianBlur stdDeviation="0.717802"/>
<feComposite in2="hardAlpha" operator="out"/>
<feColorMatrix type="matrix" values="0 0 0 0 0 0 0 0 0 0 0 0 0 0 0 0 0 0 0.03 0"/>
<feBlend mode="normal" in2="effect1_dropShadow_1_378" result="effect2_dropShadow_1_378"/>
<feBlend mode="normal" in="SourceGraphic" in2="effect2_dropShadow_1_378" result="shape"/>
</filter>
</defs>
</svg>
