<svg xmlns="http://www.w3.org/2000/svg" viewBox="0 0 3568.27 2826.98"><defs><style>.cls-1{fill:#fff;}</style></defs><title>Bahrain International - White_1</title><g id="Layer_2" data-name="Layer 2"><g id="Layer_1-2" data-name="Layer 1"><path class="cls-1" d="M0,2602.34H80.32q33,0,49.44,13.6t16.48,42.72q0,20.81-7.2,32.48t-21.28,18.4Q153,2721.71,153,2761.7q0,33.28-17.6,47.68t-50.88,14.4H0Zm79.36,21.76H24.64v76.48h57q20.48,0,29.92-9.76t9.44-29.44q0-19.68-10.08-28.48T79.36,2624.1ZM81.92,2722H24.64v80H83.52q21.75,0,33.12-9.12T128,2760.74q0-12.16-4.64-20.48A26.92,26.92,0,0,0,111,2728.42,69.62,69.62,0,0,0,81.92,2722Z"/><path class="cls-1" d="M174.4,2823.78l60.8-221.44H289l60.8,221.44H325.44l-16-57H214.72l-16,57Zm79.36-200.32-33.6,121.28H304l-33.6-121.28Z"/><path class="cls-1" d="M521.92,2823.78V2723.62H409.28v100.16H384.64V2602.34h24.64v99.2H521.92v-99.2h24.32v221.44Z"/><path class="cls-1" d="M625.27,2739v84.8H600.63V2602.34h81.92q35.21,0,53,16.32t17.76,50.88q0,51.2-40.64,64.32l42.56,89.92H728L688,2739Zm57.6-21.76q45.12,0,45.13-46.56t-45.45-46.56H625.27v93.12Z"/><path class="cls-1" d="M776,2823.78l60.8-221.44h53.76l60.8,221.44H927l-16-57H816.32l-16,57Zm79.36-200.32-33.6,121.28H905.6L872,2623.46Z"/><path class="cls-1" d="M986.24,2823.78V2602.34h24.64v221.44Z"/><path class="cls-1" d="M1065,2823.78V2602.34H1111l84.8,199.68h6.72V2602.34h24.32v221.44h-45.12l-86.08-199.68h-6.08v199.68Z"/><path class="cls-1" d="M1351.67,2823.78V2602.34h24.63v221.44Z"/><path class="cls-1" d="M1430.38,2823.78V2602.34h46.08l84.8,199.68H1568V2602.34h24.32v221.44h-45.12L1461.1,2624.1H1455v199.68Z"/><path class="cls-1" d="M1623.66,2624.42v-22.08h160v22.08h-67.52v199.36h-24.32V2624.42Z"/><path class="cls-1" d="M1815,2823.78V2602.34h134.72v21.76H1839.65v76.48h90.88V2722h-90.88v80h110.08v21.76Z"/><path class="cls-1" d="M2016.61,2739v84.8H1992V2602.34h81.92q35.21,0,53,16.32t17.76,50.88q0,51.2-40.64,64.32l42.56,89.92h-27.2l-40-84.8Zm57.6-21.76q45.12,0,45.12-46.56t-45.44-46.56h-57.28v93.12Z"/><path class="cls-1" d="M2189.09,2823.78V2602.34h46.08L2320,2802h6.72V2602.34H2351v221.44h-45.12l-86.08-199.68h-6.08v199.68Z"/><path class="cls-1" d="M2385.89,2823.78l60.8-221.44h53.76l60.8,221.44h-24.32l-16-57h-94.72l-16,57Zm79.36-200.32-33.6,121.28h83.84l-33.6-121.28Z"/><path class="cls-1" d="M2558.05,2624.42v-22.08h160v22.08h-67.52v199.36h-24.32V2624.42Z"/><path class="cls-1" d="M2749.4,2823.78V2602.34H2774v221.44Z"/><path class="cls-1" d="M2994.2,2714.66q0,59.21-18.88,85.76T2906.68,2827q-49.77,0-68.64-27.2t-18.88-85.6q0-58.39,19.2-86.72t68.16-28.32q49,0,68.32,28.16T2994.2,2714.66Zm-149.76-.64q0,48.64,12.8,69.92t49.44,21.28q36.63,0,49.28-20.8t12.64-69.76q0-49-13.12-71.36t-49.12-22.4q-36,0-49,22.24T2844.44,2714Z"/><path class="cls-1" d="M3039.32,2823.78V2602.34h46.08L3170.2,2802h6.72V2602.34h24.32v221.44h-45.12L3070,2624.1H3064v199.68Z"/><path class="cls-1" d="M3236.11,2823.78l60.81-221.44h53.75l60.8,221.44h-24.31l-16-57h-94.73l-16,57Zm79.36-200.32-33.6,121.28h83.84l-33.6-121.28Z"/><path class="cls-1" d="M3568.27,2823.78H3446.35V2602.34H3471V2801.7h97.28Z"/><path class="cls-1" d="M3043.85,2281.82c-297.78-.22-829.7-3.67-1379.88-7.25-689.83-4.47-1392.91-9-1576.29-6.45-47.19.64-64.74-24.6-71.45-39.69-9.53-21.51-7.19-49.9,5.36-64.65,30.91-36.3,56.75-64.51,77.54-87.2,59.29-64.69,71.82-79.82,71.46-120.76-.2-22.21-15.88-57.56-32.5-95-28.15-63.44-60-135.27-50.83-209.43C126.68,1334.08,283.81,341.94,329.38,69.58c1.85-11.09,8.31-27.26,28.46-41.38,30.39-21.28,86.89-33.44,120.86-26,45.92,10,106.39,79.91,201.45,193.35l27.1,32.3c59.63,70.69,156.47,162.79,185,188.35,56.07,50.22,113.54,82.16,186.44,103.55C1113,529.8,1185,562.45,1212.27,614c30.86,58.44,24.33,139.69,18,218.29-4.25,53.05-8.68,107.91,2.31,135.06,18.93,46.87,208.69,179.85,322.45,259.57,129.85,91,176.62,125,190.52,149,15.77,27.25,15.13,58.84-1.78,86.65-26.82,44.06-86.21,69-126.27,67.2-94.56-4.75-310.16-33.78-499.58-59.29-113.88-15.33-221.2-29.77-278.48-35.62-41.22-4.19-101.19-3-135.6,9.62-63.13,23.1-103.91,85.59-143.57,156,64.58,16.39,232.18,35.28,337.6,36.29,26.16.25,58.15.63,93.55,1,109.19,1.27,245.43,2.86,347.47,2.47,72.19-.28,172.52.21,289,.77,313.23,1.51,705.9,3.39,863-7.67,25.64-1.81,59.33-35.72,66.7-67.18,11.24-47.92,4.58-139.28-23.21-198.82-24.85-53.24-86.05-114-163.6-162.38-37.13-23.18-95.28-43-151.45-62.06-62.93-21.39-127.89-43.48-171.57-72.93-65.49-44.16-119.43-120.27-144.37-203.63-21.32-71.26-30.12-177.73,9-263.1,12.68-27.61,26.39-59,40.65-91.59,44.45-101.65,94.84-217,138.89-276.16,31.31-42.1,124.28-111.39,190.19-93.74,67.1,18,120.22,66,162.39,147,27.63,53,68.17,118,111.15,186.8,14.35,23,28.88,46.24,43.2,69.5,77.46,125.89,765.82,1245.18,853,1410,10.48,19.81,23.41,40.58,35.91,60.68,32.12,51.56,53.33,85.64,45.45,116.17a47.49,47.49,0,0,1-22.66,29.67c-114.23,65.07-214.15,118.88-282.76,119.67-41.65.46-104.37.64-183.93.59M281.59,2195c301.72-.05,846.5,3.08,1383.28,6.15,666.38,3.82,1365.17,7.83,1562.35,5.48,50.27-.61,151.84-56.32,227.19-99.12-7.39-14.71-20.91-36.46-30.77-52.31-13.16-21.17-26.77-43-38.45-65.15-86-162.71-772.21-1279.78-849.45-1405.43-14.2-23.11-28.65-46.23-42.89-69.09-43.66-70-84.88-136-113.75-191.56-32.88-63.17-70.28-98.52-117.71-111.26-19.68-5.32-85.19,30.5-111.36,65.66-38.9,52.27-87.53,163.42-130.41,261.43-14.48,33.11-28.38,64.87-41.24,92.89-30.6,66.66-22,155.42-5.25,211.19,20,67,64.48,130.15,116,164.82,35.81,24.11,96.21,44.59,154.7,64.44,60.09,20.37,122.28,41.47,166.51,69,42.7,26.62,146.91,98.79,191,193.08,35.88,76.75,42.52,185.86,28.18,247-13.3,56.7-70.47,120.37-134.31,124.82-159.89,11.14-554.11,9-868.57,7.2-116.28-.65-216.48-1.21-288.36-1-102.6.31-239.16-1.39-348.61-2.75-35.33-.44-67.28-.84-93.4-1.11-59.8-.62-153.54-7.85-233.2-18-162-20.63-172.64-39.62-181.15-54.87a41.61,41.61,0,0,1,0-40.61c49.9-90.4,101.53-183.91,198.95-219.63,48.2-17.68,120-18.43,166.86-13.69,58.4,5.9,161.3,19.67,280.75,35.65,188,25.18,402.11,53.84,493.68,58.37,17.2,1.11,49.41-14.38,60-31.75,3.53-5.81,2.58-8.09.7-11.31-11.59-15.52-99.26-77-169.59-126.41-187.81-131.82-322.22-229.55-347.08-291.11-17.38-43.05-12.49-103.82-7.31-168.16,5.22-64.95,11.15-138.55-9.9-178.45-13.27-25.14-62.6-51.4-91.6-59.93-83.2-24.5-148.83-61-212.86-118.46C822.51,451.43,719.62,355,652.89,275.78l-27.22-32.46c-54.62-65.27-137-163.7-163.77-170.66-15.46-3.37-51.75,5.46-64.2,13.54C350.79,367.45,195.94,1345.39,156.93,1659.49c-6.68,53.91,20.89,116,45.24,170.74,20.63,46.47,38.47,86.62,38.83,124.08.62,71.64-30,105-90.91,171.48-17.41,19-38.45,41.91-62.92,70.15h.13c41.07-.61,107.82-.9,194.29-.91"/></g></g></svg>