<svg xmlns="http://www.w3.org/2000/svg" viewBox="0 0 3805.19 3449.87"><defs><style>.cls-1{fill:#fff;}</style></defs><title>Baku City - White_1</title><g id="Layer_2" data-name="Layer 2"><g id="Layer_1-2" data-name="Layer 1"><path class="cls-1" d="M757.79,3095.36H884.55q52,0,78,21.46t26,67.42q0,32.84-11.36,51.26t-33.59,29q55.54,19.18,55.55,82.31,0,52.53-27.77,75.25t-80.3,22.72H757.79ZM883,3129.7H796.68v120.7h89.89q32.31,0,47.22-15.41t14.89-46.46q0-31.05-15.9-44.94T883,3129.7Zm4,154.53H796.68v126.25H889.6q34.33,0,52.27-14.39t17.92-50.75q0-19.2-7.32-32.32T933,3294.33A110,110,0,0,0,887.07,3284.23Z"/><path class="cls-1" d="M1033,3444.82l96-349.46h84.84l96,349.46h-38.38l-25.25-89.89H1096.65l-25.25,89.89Zm125.24-316.13-53,191.4h132.3l-53-191.4Z"/><path class="cls-1" d="M1403.69,3444.82H1364.8V3095.36h38.89V3258l57.57-2,89.38-160.59h44.44l-100,175.74,105.55,173.72h-46l-92.92-154.53-58.07,2Z"/><path class="cls-1" d="M1688.5,3339.78q0,75.75,81.81,75.75,42.42,0,63.88-17.93t21.46-57.82V3095.36H1894v243.41q0,58.59-31,84.84t-91.66,26.26q-60.6,0-91.15-26.26t-30.56-84.84V3095.36h38.89Z"/><path class="cls-1" d="M2299.54,3439.27q-52,10.61-93.42,10.6t-66.92-11.36a83.84,83.84,0,0,1-39.39-35.35q-13.89-24-19.19-55t-5.3-77.51q0-46.47,5.3-78t19.19-55.8a82.28,82.28,0,0,1,39.14-35.35q25.25-11.1,65.65-11.11t94.94,11.11l-1.51,32.83q-51-9.09-90.91-9.09-55.54,0-73.47,33.07t-17.93,112.87q0,39.9,3.28,64.14a140.64,140.64,0,0,0,12.88,43.68q9.59,19.44,28,27.77t54,8.34q35.61,0,84.09-9.09Z"/><path class="cls-1" d="M2363.17,3444.82V3095.36h38.88v349.46Z"/><path class="cls-1" d="M2451,3130.2v-34.84h252.5v34.84H2597v314.62h-38.38V3130.2Z"/><path class="cls-1" d="M2865.63,3444.82h-38.89v-147l-111.6-202.51h43.93L2845.93,3259l86.86-163.62h43.94l-111.1,202.51Z"/><path class="cls-1" d="M3798.63,617.39c-3.51,4.64-8.46,8.4-15,11.65C3736.45,652.7,3408.59,790.8,3029,950.69c-431.34,181.68-920.23,387.61-1108.61,472.47-41.86,18.87-104.73,70.52-160.18,116.11-33.63,27.64-65.39,53.74-91.37,71.74-109.07,75.57-338,247.93-466.83,346.58-3.82,8.16-6.94,32.61-9.25,50.7-6.11,47.84-13.71,107.28-48.23,153-.27.36-.56.73-.85,1.1-35.54,46.22-90.77,92.43-149.25,141.35-56.82,47.52-115.56,96.65-155,145.53-36.49,45.37-75.24,128.58-106.27,195.47-49.71,107.22-70.29,151.57-113.21,143.94-15.33-2.76-54.19-21.33-244.6-117-119.32-59.93-299.65-150.52-325.91-157-45.83-9.44-38.91-61.31-31.6-116.21,4.64-34.69,10.4-77.88,6.08-110.43-2.27-17.07-5.18-35.15-8.17-53.71-11.77-73.13-25.12-156-6.14-219.08,12.63-42,24.23-82.27,35-119.51,40.73-141.27,61.39-210.46,88-240C190.1,1591.55,679.38,1366,781,1336.5c15.09-4.37,30.45-2.6,43.3,5,26.14,15.43,33.15,47.86,39.93,79.21,2.07,9.5,5.31,24.57,8.23,31.6,6,.57,20.5-2.12,28.7-3.65,17-3.16,34.48-6.43,51.54-2,18.07,4.67,29.12,17.26,36.42,27.82,12.14-6.66,28.48-13.51,46.42-6.21a41.67,41.67,0,0,1,24.48,28.31c14.57,55,61,191.83,83.72,250,3.14,8,5.34,18.55,9,36.54.69,3.44,1.56,7.71,2.5,12.22,15.49-10.68,32.69-23.19,41.65-30.22,52.72-41.34,168.95-129.67,273.08-203.54,26.31-18.67,57.39-40,88.34-61.22,50.31-34.51,106.47-73,132.4-94-3.48-6-8.62-13.63-12.17-18.89-16.72-24.71-35.67-52.69-23-82.55,25.72-60.55,275.34-182.68,277.86-183.91,71.61-34.87,143-64.5,195.1-86.12,17.06-7.08,34.44-14.28,47.4-19.91-10.33-28.7-32.1-80.05-50.46-123.34-89.61-211.36-109-262.06-61.58-283.19,29.38-13.1,69.48-31.24,117.72-53,184.48-83.34,493.23-222.84,771.73-338.66,176.46-73.36,344.3-134.63,455.36-175.17,44.33-16.19,79.36-29,104-38.52,36.92-14.29,55.87,22.93,82.11,74.42,18.06,35.46,41.45,85.19,67.66,143.8,36.35,81.36,74,170.74,100.68,239.06,37.28,95.45,51.67,135.64,35.51,157M1143.47,1913.27a60.48,60.48,0,0,1,11.56-11.66c111-85,352.43-267.58,471.83-350.29,23.5-16.29,54.12-41.45,86.53-68.1,61.91-50.88,125.94-103.5,176.78-126.41,189.21-85.24,678.55-291.34,1110.29-473.2C3324.84,747,3633.14,617.14,3726.87,575.08c-27.84-91-166.41-412.21-213.29-494.42-21.87,8.18-48.54,17.91-79.82,29.32-110.44,40.33-277.35,101.26-452.3,174C2704,399.36,2395.87,538.57,2211.79,621.74c-37.39,16.89-69.91,31.59-96.36,43.45,11.33,41.33,52,137.24,77.73,198,60.67,143.09,66.79,161.85,59.62,182.45-6.72,19.36-15.21,22.9-96.17,56.5-51.26,21.27-121.45,50.39-191,84.29-116.82,56.89-211,117.47-237.55,142.36,3.28,5.65,8.2,12.91,11.59,17.91,16.5,24.4,47.33,69.83,11.53,103.88-22.56,21.47-85,64.32-151.19,109.69-30.62,21-61.34,42.08-87.37,60.56-103.06,73.11-218.08,160.51-270.25,201.42-.72.56-71.94,56.23-97.3,61.87a40,40,0,0,1-30.54-5.51c-19.15-12.28-24.75-36.17-33.81-80.87-1.81-9-4.31-21.3-5.52-24.77-19.74-50.59-55.52-154.75-75.9-221.87-8.32,3-17.6,4.59-27.64,2.61-22-4.3-33.18-22.12-39.86-32.77-.61-1-1.37-2.19-2.12-3.33-4.23.62-10.5,1.78-15.16,2.67-25.15,4.67-59.57,11.1-87.91-9.92-21.61-16-28-45.56-34.17-74.13-1.54-7.11-3.72-17.2-6-25-137.58,46.23-563.75,253.61-599.19,292.91-16.15,18-44.72,116.41-72.1,211.41-10.82,37.49-22.5,78-35.22,120.31-14.15,47.11-2.21,121.28,8.31,186.73,3.1,19.26,6.11,38,8.46,55.67,5.58,42.09-.88,90.56-6.08,129.51-1.82,13.64-4.11,30.79-4.85,42.48,43.86,17.15,141.26,65.2,322.9,156.44,81.42,40.91,171.83,86.31,210.27,103.85,12.67-21.09,32.26-63.33,47.4-96,34.41-74.2,73.57-158.38,115.75-210.68,44-54.46,105.55-105.94,165.06-155.72,55.28-46.25,107.52-89.94,138.14-129.77,22.59-30.09,29.47-79.37,34.53-118.9,4.6-36.11,8.42-66,23.67-86.15"/></g></g></svg>