<svg xmlns="http://www.w3.org/2000/svg" viewBox="0 0 3643.14 3434.88"><defs><style>.cls-1{fill:#fff;}.cls-2{fill:none;stroke:#fff;stroke-linejoin:round;stroke-width:77px;}</style></defs><title>Lusail - White</title><g id="Layer_2" data-name="Layer 2"><g id="Layer_1-2" data-name="Layer 1"><path class="cls-1" d="M1259,3366.7q-78.29,0-108.08-42.92t-29.79-135.09q0-92.16,30.3-136.85t107.57-44.7q77.25,0,107.81,44.44t30.56,136.86q0,64.14-13.13,102.77t-45,57.31l42.93,69.19-36.37,17.17-44.43-72.72Q1284.76,3366.71,1259,3366.7Zm-98-178.26q0,76.77,20.2,110.34t78,33.58q57.81,0,77.77-32.57t20-110.09q0-77.5-20.71-112.87t-77.52-35.35q-56.8,0-77.26,35.1T1161,3188.44Z"/><path class="cls-1" d="M1431.71,3361.65l96-349.46h84.84l96,349.46h-38.38l-25.25-89.89H1495.34l-25.25,89.89ZM1557,3045.52l-53,191.4h132.31l-53-191.4Z"/><path class="cls-1" d="M1703.4,3047v-34.85h252.5V3047H1849.35v314.61H1811V3047Z"/><path class="cls-1" d="M1950.85,3361.65l95.94-349.46h84.85l96,349.46H2189.2L2164,3271.76H2014.47l-25.25,89.89Zm125.24-316.13-53,191.4h132.31l-53-191.4Z"/><path class="cls-1" d="M2321.51,3227.83v133.82h-38.88V3012.19h129.28q55.55,0,83.57,25.76t28,80.29q0,80.81-64.13,101.51l67.16,141.9h-42.92l-63.13-133.82Zm90.9-34.34q71.21,0,71.21-73.48t-71.71-73.48h-90.4v147Z"/><path id="path2406" class="cls-2" d="M1706.42,2612.26c-410.14,1-804.47-8.75-1193.67-9.86-229.74-.66-257-254.89-130-323.76,142.66-77.36,276.85-143,416.12-224.2,104.59-61,112.84-227.68-16.14-293.27-136.47-69.39-220.8-114.66-352.45-189.23-32.12-18.19-74.51-66.38-87-101.34C236.9,1172.87,148.9,899.64,48.19,598,17.49,506.05,60.78,421.32,163,386.34c78.66-26.92,113.62-40,198.2-67.26C437,294.65,533,358.28,564.76,440.15c66.33,171.19,113.54,341.23,168.61,510.3,12.56,38.58,65.57,86.78,97.75,86.09,25.48-.54,74.32-23.44,78.92-54.71,40.17-272.85,79.33-545.56,113.9-817.9,7-55.49,64.74-99.28,104.93-116.59,37.54-16.17,93.27-8.36,129.14,9s70.78,55.06,86.09,95.06c21.76,56.86,20.15,122.12,43.05,179.37,29.71,74.28,65.75,150.83,121.07,209.86,38,40.56,104.67,83.21,146.94,132.29,25.78,29.94,77.62,85.44,57.54,154.69-23.74,81.85-79.91,242.55-115.69,412.54-8.91,42.3,15.65,96.53,48.43,118.38,39,26,113.35,24.41,163.22,9.87,93.62-27.31,189.87-63.77,274.43-119.28,72.09-47.33,132-106.67,190.12-170.4,44.78-49.1,84.65-105.82,113-166.81,82.85-178.17,148.77-361.15,222.42-545.27,22-55,59.88-125,107.62-153.35,29-17.22,85.75-42.9,118.38-43,132.47-.63,206.62-1.54,340.79.89,34.58.64,97.89,39.51,113.9,70,70.88,134.81,133,242.39,208.06,371.28,20.24,34.76,22.07,114.24-9.87,151.57-159.12,186-276.47,331.9-441.23,515.67-47,52.4-76.63,145.79-39.46,202.68,191.62,293.34,349.84,567.61,568.58,865.44,73.44,100-.35,249.56-122.86,250.21C2860.63,2601.07,2305.5,2610.84,1706.42,2612.26Z"/></g></g></svg>