<svg xmlns="http://www.w3.org/2000/svg" viewBox="0 0 4371.18 3454.91"><defs><style>.cls-1{fill:#fff;}</style></defs><title>Mexico - White_1</title><g id="Layer_2" data-name="Layer 2"><g id="Layer_1-2" data-name="Layer 1"><path class="cls-1" d="M4198.31,2742.49c-12.63,5.79-27.5,9.1-44,9.62-32.13,1-76.89-9.76-97.21-43.28-34.78-57.47-86.4-173.71-146.15-308.28-84.4-190.08-189.43-426.62-256.29-509.39-18.57-23-60.43-20.48-122.19-14-46.27,4.83-94.12,9.84-138-3-39.6-11.65-79.52-34.63-121.8-58.91-52.53-30.23-112.08-64.46-152.92-61.1-54.3,4.43-138.31,47-219.49,88.1-93.48,47.29-181.8,92-252.78,96.33-81.72,5-127.69-55-161.28-98.85-21.29-27.78-41.42-54-61.63-55.71-135.45-11.24-403.05,11.55-503.92,36.73-74.46,18.6-266.64,97.28-514.06,210.48-10.55,4.79-30.89,14.24-57.64,26.61-76.09,35.19-203.41,94-309.43,141.89-31.25,14-56.56,26.26-77.39,36.27-103.94,49.87-134,59.46-204.7-24.85-16.56-19.74-40.73-54.43-71.29-98.33-45.26-65-135.2-194.08-177.52-227.22-1.4,5.66-1.35,16,.33,36.63,2.56,30.92,6,73.29-24.76,104.5-31,31.48-78.5,32.09-111.54,29.83-36.61-2.5-102.44,32.17-155.36,60-40.89,21.49-79.49,41.81-111.41,49.75-20,5-40.86-1.85-55.82-18.28C-2.4,2090.29-14.85,1854,18.52,1759.46c29.91-84.64,106.4-160.74,209.92-208.77,105.06-48.79,271.35-122.36,464-207.61,290.7-128.65,652.48-288.75,913.57-412.9,127.26-60.48,258-126.11,384.36-189.55,200.47-100.64,389.74-195.71,564.55-271,134.06-57.79,287.9-128.43,423.82-190.85,118.7-54.5,230.87-106,314.65-142.06l40.1-17.4c300.72-130.88,358.47-144,386.15-88,19.13,38.8,30.9,70.41,41.29,98.3,17.07,45.82,27.33,73.48,58.76,102.24,4.45,4.09,13.5,3.14,38.44-1.76,25.78-5,57.89-11.31,93.27-1.44,48.82,13.61,74.34,78.52,129.65,246.91,5.06,15.4,10.13,30.77,15.12,45.75,44.7,133.73,63.81,1467.3,51,1746.76,17.93,1.32,46.08,0,64.84-.92,61-2.93,113.66-5.43,142.64,26.7,13.2,14.68,18.78,33.94,15.67,54.29-13.13,86.15-103.28,298.51-136.28,361.47-7.54,14.37-19.89,25.54-35.75,32.81M4134.8,2656c5.07,2,14.17,2.88,20.29,2.16,32.35-64.42,96.41-219.62,117-298.66-16.91-.54-39.78.54-55.63,1.31-61.53,2.94-114.68,5.48-145.24-25.68a66.61,66.61,0,0,1-18.79-51.82c16.4-243.14-7.55-1619.48-45.23-1732.23-5.06-15.13-10.17-30.68-15.3-46.23-20.1-61.22-53.05-161.54-72.29-187.17-12.58-1.61-27.09,1.24-43.52,4.46-33.63,6.59-79.68,15.62-119.79-21.13-48.07-44-64.4-87.88-83.3-138.64-7.3-19.62-15.32-41.2-26.25-65.57-58.62,13.88-207.85,78.83-275.92,108.47l-40.47,17.54C3247.69,258.44,3136,309.74,3017.84,364,2881.57,426.63,2727.11,497.52,2592,555.75,2419.86,630,2231.59,724.4,2032.41,824.41c-126.87,63.67-258,129.53-386.15,190.44-262.26,124.69-624.69,285.09-915.91,414-192.21,85.06-358,158.47-462.43,206.9-79.59,36.92-139.77,94.85-161,155C81.05,1864,95.29,2006.23,112,2064.52c18.69-8.05,40.27-19.74,61.64-31,66.64-35,142.24-74.82,205.4-70.53,22.9,1.57,33.47-.79,37.38-2.11,1.1-6.7-.08-21.09-.89-31-3.12-37.72-8.19-108.08,64.54-138.89,67.33-28.35,137.93,60,283,268.22,28.07,40.31,52.35,75.13,66.2,91.66,6.77,8,20.2,24,26.62,29,10.4-1.88,37.29-14.83,65.67-28.42,21.38-10.27,47.31-22.74,79.44-37.22,105.58-47.64,232.67-106.42,308.61-141.52,26.88-12.45,47.38-21.87,58-26.78,121.16-55.42,415.42-187.47,530.34-216.17,110.67-27.65,384.45-51.66,534.4-39.21,61.6,5.11,98.57,53.36,128.29,92.13,33.46,43.65,52.4,64,81.2,62.3,51.56-3.12,135.2-45.46,216.11-86.43,93.38-47.27,181.55-91.92,254.15-97.89,70-5.73,139.78,34.43,207.33,73.29,37.3,21.44,72.55,41.71,101.46,50.2,26.17,7.68,64.66,3.65,101.9-.26,68.08-7.12,152.86-16,204.87,48.36,74.6,92.38,177.88,325,269,530.23,54.58,122.92,106.21,239.18,138.15,293.56M83.21,2075.28h0Z"/><path class="cls-1" d="M1371.91,3449.86V3100.12h70.25l99.06,295.66,99-295.66h70.25v349.74h-38.91v-308.3h-7.08L1563,3437.22h-43.47L1417.9,3141.56h-7.08v308.3Z"/><path class="cls-1" d="M1796.44,3449.86V3100.12h212.77v34.37H1835.36v120.79h143.53v33.86H1835.36v126.35h173.85v34.37Z"/><path class="cls-1" d="M2086.53,3100.12l88.45,149.6,88.95-149.6h42l-107.65,177.4,107.65,172.34h-44L2174,3304.81l-89.46,145.05h-42l108.16-171.33-108.16-178.41Z"/><path class="cls-1" d="M2357.93,3449.86V3100.12h38.92v349.74Z"/><path class="cls-1" d="M2693.51,3444.3q-52.07,10.6-93.5,10.61t-67-11.37a83.87,83.87,0,0,1-39.42-35.38q-13.9-24-19.2-55.09t-5.31-77.58q0-46.48,5.31-78.08t19.2-55.85a82.34,82.34,0,0,1,39.17-35.37q25.27-11.11,65.7-11.12t95,11.12L2692,3139q-51-9.11-91-9.1-55.61,0-73.53,33.1t-17.95,113q0,39.93,3.29,64.18a140.55,140.55,0,0,0,12.89,43.72q9.59,19.47,28.05,27.8t54.07,8.34q35.64,0,84.15-9.1Z"/><path class="cls-1" d="M3013.93,3277.52q0,93.49-29.82,135.44t-108.4,41.95q-78.6,0-108.41-43t-29.82-135.19q0-92.24,30.32-137t107.65-44.73q77.33,0,107.9,44.47T3013.93,3277.52Zm-236.52-1q0,76.81,20.21,110.42t78.09,33.61q57.86,0,77.83-32.85t20-110.17q0-77.33-20.72-112.71t-77.58-35.38q-56.86,0-77.33,35.13T2777.41,3276.51Z"/></g></g></svg>