<svg xmlns="http://www.w3.org/2000/svg" viewBox="0 0 3935.84 3505.21"><defs><style>.cls-1{fill:#fff;}</style></defs><title>Silverstone - White_1</title><g id="Layer_2" data-name="Layer 2"><g id="Layer_1-2" data-name="Layer 1"><path class="cls-1" d="M620.77,3179.49q-75.75,0-75.75,57.06,0,31.82,17.42,43.68t70.7,23.74q53.28,11.87,75.5,30.8t22.22,62.37q0,107.57-111.6,107.57-36.87,0-92.42-8.59l-18.18-2.52,4-32.32q68.67,9.09,104.54,9.09,74.73,0,74.74-70.2,0-28.27-16.42-40.65t-61.35-21q-59.09-12.61-83.83-32.57t-24.75-66.91q0-93.93,112.62-93.93,36.86,0,88.37,7.57l17.17,2.53-3.53,32.82Q650.06,3179.49,620.77,3179.49Z"/><path class="cls-1" d="M798,3500.16V3150.7h38.89v349.46Z"/><path class="cls-1" d="M1114.65,3500.16H922.24V3150.7h38.89v314.62h153.52Z"/><path class="cls-1" d="M1332.81,3150.7h40.4l-91.41,349.46H1195l-91.41-349.46h40.4l80.3,315.12h28.27Z"/><path class="cls-1" d="M1428.25,3500.16V3150.7h212.6V3185H1467.13v120.7h143.42v33.83H1467.13v126.25h173.72v34.34Z"/><path class="cls-1" d="M1746.39,3366.34v133.82h-38.88V3150.7h129.28q55.55,0,83.58,25.76t28,80.29q0,80.8-64.13,101.51l67.16,141.9H1908.5l-63.13-133.82Zm90.9-34.34q71.2,0,71.21-73.48T1836.79,3185h-90.4v147Z"/><path class="cls-1" d="M2115,3179.49q-75.75,0-75.75,57.06,0,31.82,17.43,43.68t70.7,23.74q53.26,11.87,75.49,30.8t22.22,62.37q0,107.57-111.6,107.57-36.87,0-92.42-8.59l-18.18-2.52,4-32.32q68.67,9.09,104.54,9.09,74.73,0,74.74-70.2,0-28.27-16.41-40.65t-61.36-21q-59.08-12.61-83.83-32.57t-24.75-66.91q0-93.93,112.62-93.93,36.86,0,88.37,7.57l17.17,2.53-3.53,32.82Q2144.33,3179.49,2115,3179.49Z"/><path class="cls-1" d="M2255.93,3185.55V3150.7h252.5v34.85H2401.88v314.61H2363.5V3185.55Z"/><path class="cls-1" d="M2809.92,3328q0,93.43-29.8,135.34t-108.32,41.91q-78.53,0-108.32-42.92t-29.8-135.09q0-92.16,30.3-136.86t107.57-44.69q77.26,0,107.81,44.44T2809.92,3328Zm-236.34-1q0,76.76,20.2,110.34t78,33.58q57.82,0,77.77-32.82T2769.52,3328q0-77.27-20.71-112.62T2671.29,3180q-56.8,0-77.26,35.1T2573.58,3327Z"/><path class="cls-1" d="M2881.12,3500.16V3150.7h72.72l133.82,315.12h10.61V3150.7h38.38v349.46h-71.21L2929.6,3185H2920v315.12Z"/><path class="cls-1" d="M3222.49,3500.16V3150.7H3435.1V3185H3261.38v120.7H3404.8v33.83H3261.38v126.25H3435.1v34.34Z"/><path class="cls-1" d="M2319.24,175.22c83.23,22.38,145.64,89.56,167.1,179.9,24.69,104,69.92,194.72,91.48,214,26.79,23.92,59.3,52.86,96.34,85.8,323.14,287.52,995.51,885.81,1188.78,1106.93,32.54,37.23,91.74,143,67,232.09-50.48,181.82-196.7,201.55-259.14,210-8.78,1.2-17.09,2.31-21.36,3.39l-3.78.94c-109.12,26.8-214.38,67.85-296.42,115.58-77,44.76-157.22,85.36-221.72,118-54.63,27.63-115.71,58.52-137.37,74.32,3.87,11.75,14.7,30.63,21.79,43,21.87,38.14,46.66,81.37,31.52,125.09-28,81-285.7,170.89-398.94,140.42-1.4-.38-2.77-.76-4.1-1.18-53.37-16.28-195.9-186-570.56-655.68-78.66-98.62-152.94-191.78-217.33-270.77-37.29-45.76-40.66-140.85-26.6-186.22,10.85-35,27.46-76.26,43.53-116.13C1881,1566,1891.87,1539.06,1900,1516c6.71-19.06,13.9-36.15,20.85-52.69,15-35.72,28-66.56,30.51-104.49,3.5-53.2-16.52-110.22-35.87-165.36l-2.24-6.38c-13.77-39.36-39.74-89.46-64.84-137.94-20-38.68-39-75.23-52.58-107.58-5-11.82-10.94-24.69-17.15-38-28.72-62-58.41-126-41-176,15.11-43.43,74.85-48.09,197.73-53.74,41.72-1.93,103.54-4.78,123.09-11.38,3.27-6.85,4.85-22.05,2.73-28.4-15.11-20.24-72.85-59.68-138.48-94.5-66-35-157.63-70.28-196.81-68.61-38.6,1.63-78.16,32.94-120,66.08-19.39,15.35-39.44,31.21-60.81,45.35-125.76,83.18-403.15,273.92-647.88,442.23-175,120.35-340.33,234-425.62,291.48-29,19.53-57.65,61.05-62.51,90.63-5.13,31.26,5,73.63,22.64,94.44,9.3,11,51.6,22.9,82.5,31.61,62.37,17.61,133.07,37.54,167.43,88.8,26.82,40,33,105.45,14.15,149.06-17.75,40.92-59.69,90.49-124.19,107-81.36,20.76-201.84-80.69-339.42-205.29-15.38-13.93-29.25-26.49-41-36.71-60.65-52.94-117.67-134.21-148.8-212.08-32.83-82-47-172.39-41.08-261.38,6.35-94.93,25.43-219.37,43.87-339.71,4.34-28.35,8.63-56.31,12.65-83.3C70.54,654,114,365.94,139.59,234.19c11.3-58.18,42.64-117.35,81.76-154.4,37.41-35.39,93.88-60.88,155-70C457.29-2.2,597.13-1.8,692.8,3.66c99,5.66,305,17.41,436.27,49,128.72,30.88,232.83,51.27,301.08,59,30.1,3.39,73.75-10,116-22.88,55.76-17.08,108.45-33.19,153.3-21.24l.58.16c57.59,15.5,106.82,51.23,154.43,85.81,49.47,35.9,96.43,69.85,151.33,83.21,61.55,14.92,107.71-7.27,156.57-30.77,47.62-22.87,96.86-46.55,156-30.9ZM2665,2752.63c86.3,23.22,290.2-59.63,308.09-93.72,3.7-10.81-14.2-42-26-62.65-17.85-31.1-36.29-63.27-32.69-96.05,3.86-35.08,40.38-54.9,179.4-125.2,63.62-32.17,142.8-72.2,217.85-115.87,88-51.23,200.33-95.11,316.2-123.57l3.3-.81c8.41-2.13,18.26-3.46,29.69-5,59.75-8.06,159.76-21.55,197.05-155.84,15.32-55.23-26.53-134.58-51.25-162.87-190.19-217.59-860.19-813.77-1182.19-1100.28-37.06-33-69.61-61.93-96.43-85.88-43.31-38.64-92.21-158.73-114.45-252.49-7.22-30.34-32.71-103.15-113.7-124.93l-.66-.18c-30.92-8.18-59.83,4.55-104.47,26-53.05,25.51-119.08,57.26-206.6,36-69.31-16.86-124.47-56.76-177.65-95.38-44-32-85.66-62.19-129.93-74.1l-.4-.11c-24.17-6.44-70.91,7.86-112.15,20.47-49.52,15.15-100.7,30.83-146.23,25.69-90-10.15-218.36-38.55-310.16-60.56-124.75-30-326.25-41.48-423.07-47-112.45-6.43-236.31-4.18-301.21,5.47-45.6,6.78-88.44,25.58-114.55,50.29-27.94,26.46-51.41,71.36-59.75,114.37C187.7,378.72,144.48,665.4,131.82,750.16c-4,27.09-8.33,55.14-12.7,83.6-18.2,118.79-37,241.63-43.17,333.37a524.54,524.54,0,0,0,35.89,228.61c27,67.57,76.27,137.87,128.55,183.51,12,10.46,26.2,23.33,42,37.62,60.62,54.93,221.68,200.8,270.67,188.26,38.37-9.8,63.88-40.73,74.08-64.25,8.65-19.93,4.79-59.13-7.63-77.65-19-28.39-78.14-45.07-125.63-58.46-51.08-14.41-95.19-26.85-119.27-55.28-31.94-37.74-48.12-101.42-39.36-154.88,8.24-50.1,48-109.21,94.53-140.56,85-57.24,250.16-170.84,425-291.08,245-168.47,522.66-359.44,649-443,18.71-12.38,37.49-27.25,55.66-41.62,49.38-39.07,100.45-79.47,163.28-82.15,82-3.48,228.83,74,235,77.27C1997.14,494.36,2092,547.73,2123.1,592c16.61,23.65,16,58.14,9.88,82.52-6.36,25.4-19.76,44.37-37.68,53.42-27.78,14-77.56,16.95-156.49,20.58-41.08,1.9-107,4.93-131.75,12.17,0,26.26,24.27,78.63,39.46,111.38,6.59,14.2,12.91,27.89,18.21,40.48,12.46,29.58,30.74,64.85,50.09,102.2,26.29,50.76,53.48,103.26,69,147.61l2.22,6.33c20.83,59.34,44.42,126.59,39.91,195.06-3.32,50.42-20,90.14-36.18,128.55-6.51,15.52-13.27,31.59-19.24,48.55-8.66,24.58-19.84,52.31-31.67,81.67-15.49,38.45-31.53,78.21-41.46,110.29-9.73,31.39-2.25,98,13.13,116.84,64.63,79.31,139,172.6,217.83,271.37,203.29,254.87,481.44,603.6,535,631.11l1.69.47"/></g></g></svg>